<svg width="205" height="143" viewBox="0 0 205 143" fill="none" xmlns="http://www.w3.org/2000/svg">
<rect x="74.0278" y="111.026" width="39.5893" height="55.9274" transform="rotate(161.644 74.0278 111.026)" fill="#00C2CE" fill-opacity="0.5"/>
<g filter="url(#filter0_d_147_754)">
<path d="M55.3975 102.078L62.4517 99.7371L69.5059 97.3965L56.4153 57.9439L18.8727 70.4006L31.9632 109.853L33.7566 109.258L37.9413 107.87L44.9955 105.529L50.0172 103.863L55.3975 102.078Z" fill="url(#paint0_linear_147_754)"/>
</g>
<path d="M80.2828 124.438C80.8046 126.011 79.9527 127.709 78.3802 128.23L43.1876 139.907C41.6151 140.429 39.9173 139.577 39.3955 138.005L38.4362 135.114L79.3235 121.547L80.2828 124.438Z" fill="url(#paint1_linear_147_754)"/>
<path d="M84.4454 117.041C84.9672 118.614 84.1153 120.312 82.5428 120.833L77.784 122.412L73.6484 109.949L78.4072 108.37C79.9798 107.848 81.6776 108.7 82.1993 110.272L84.4454 117.041Z" fill="url(#paint2_linear_147_754)"/>
<rect x="77.897" y="122.375" width="8.01391" height="13.1321" transform="rotate(161.644 77.897 122.375)" fill="url(#paint3_linear_147_754)"/>
<rect x="70.4043" y="124.861" width="8.01391" height="13.1321" transform="rotate(161.644 70.4043 124.861)" fill="url(#paint4_linear_147_754)"/>
<rect x="62.9111" y="127.347" width="8.01391" height="13.1321" transform="rotate(161.644 62.9111 127.347)" fill="url(#paint5_linear_147_754)"/>
<rect x="55.4175" y="129.834" width="8.01391" height="13.1321" transform="rotate(161.644 55.4175 129.834)" fill="url(#paint6_linear_147_754)"/>
<rect x="47.9243" y="132.32" width="8.01391" height="13.1321" transform="rotate(161.644 47.9243 132.32)" fill="url(#paint7_linear_147_754)"/>
<path d="M40.4307 134.806L35.6719 136.385C34.0993 136.907 32.4015 136.055 31.8798 134.483L29.6337 127.713C29.1119 126.141 29.9638 124.443 31.5363 123.921L36.2951 122.342L40.4307 134.806Z" fill="url(#paint8_linear_147_754)"/>
<path d="M63.0484 52.554C63.5702 54.1266 62.7184 55.8244 61.1458 56.3461L56.387 57.9251L52.2515 45.4612L57.0102 43.8822C58.5828 43.3605 60.2806 44.2123 60.8024 45.7848L63.0484 52.554Z" fill="url(#paint9_linear_147_754)"/>
<rect x="56.5" y="57.8877" width="8.01391" height="13.1321" transform="rotate(161.644 56.5 57.8877)" fill="url(#paint10_linear_147_754)"/>
<rect x="49.0073" y="60.3735" width="8.01391" height="13.1321" transform="rotate(161.644 49.0073 60.3735)" fill="url(#paint11_linear_147_754)"/>
<rect x="41.5142" y="62.8599" width="8.01391" height="13.1321" transform="rotate(161.644 41.5142 62.8599)" fill="url(#paint12_linear_147_754)"/>
<rect x="34.0205" y="65.3462" width="8.01391" height="13.1321" transform="rotate(161.644 34.0205 65.3462)" fill="url(#paint13_linear_147_754)"/>
<rect x="26.5273" y="67.8325" width="8.01391" height="13.1321" transform="rotate(161.644 26.5273 67.8325)" fill="url(#paint14_linear_147_754)"/>
<path d="M19.0337 70.3188L14.2749 71.8978C12.7024 72.4196 11.0046 71.5678 10.4828 69.9952L8.23674 63.226C7.71497 61.6535 8.56678 59.9557 10.1393 59.4339L14.8981 57.8549L19.0337 70.3188Z" fill="url(#paint15_linear_147_754)"/>
<rect x="131.05" y="21.6372" width="26.4196" height="37.3228" transform="rotate(101.196 131.05 21.6372)" fill="#00C2CE" fill-opacity="0.5"/>
<g filter="url(#filter1_d_147_754)">
<path d="M119.723 29.5075L120.686 24.6419L121.649 19.7764L94.4369 14.3904L89.3117 40.2851L116.524 45.671L116.769 44.434L117.34 41.5476L118.303 36.6821L118.988 33.2185L119.723 29.5075Z" fill="url(#paint16_linear_147_754)"/>
</g>
<path d="M139.916 22.2271C141.541 22.5488 142.598 24.1272 142.276 25.7525L137.86 48.0682C137.538 49.6935 135.96 50.7503 134.334 50.4286L133.319 50.2277L138.901 22.0262L139.916 22.2271Z" fill="url(#paint17_linear_147_754)"/>
<path d="M136.992 17.3765C138.617 17.6982 139.674 19.2766 139.353 20.9019L138.897 23.2052L130.3 21.5037L130.756 19.2004C131.077 17.575 132.656 16.5182 134.281 16.8399L136.992 17.3765Z" fill="url(#paint18_linear_147_754)"/>
<rect x="138.912" y="23.1265" width="5.34803" height="8.76361" transform="rotate(101.196 138.912 23.1265)" fill="url(#paint19_linear_147_754)"/>
<rect x="137.889" y="28.2954" width="5.34803" height="8.76361" transform="rotate(101.196 137.889 28.2954)" fill="url(#paint20_linear_147_754)"/>
<rect x="136.866" y="33.4639" width="5.34803" height="8.76361" transform="rotate(101.196 136.866 33.4639)" fill="url(#paint21_linear_147_754)"/>
<rect x="135.843" y="38.6328" width="5.34803" height="8.76361" transform="rotate(101.196 135.843 38.6328)" fill="url(#paint22_linear_147_754)"/>
<rect x="134.82" y="43.8003" width="5.34803" height="8.76361" transform="rotate(101.196 134.82 43.8003)" fill="url(#paint23_linear_147_754)"/>
<path d="M133.797 48.9692L133.341 51.2726C133.019 52.8979 131.441 53.9547 129.816 53.633L127.105 53.0964C125.479 52.7747 124.422 51.1964 124.744 49.5711L125.2 47.2677L133.797 48.9692Z" fill="url(#paint24_linear_147_754)"/>
<path d="M92.5122 8.57133C94.1375 8.89303 95.1943 10.4714 94.8726 12.0967L94.4167 14.4001L85.8199 12.6985L86.2758 10.3952C86.5975 8.76986 88.1758 7.71306 89.8011 8.03475L92.5122 8.57133Z" fill="url(#paint25_linear_147_754)"/>
<rect x="94.4316" y="14.3213" width="5.34803" height="8.76361" transform="rotate(101.196 94.4316 14.3213)" fill="url(#paint26_linear_147_754)"/>
<rect x="93.4087" y="19.4902" width="5.34803" height="8.76361" transform="rotate(101.196 93.4087 19.4902)" fill="url(#paint27_linear_147_754)"/>
<rect x="92.3862" y="24.6587" width="5.34803" height="8.76361" transform="rotate(101.196 92.3862 24.6587)" fill="url(#paint28_linear_147_754)"/>
<rect x="91.3623" y="29.8271" width="5.34803" height="8.76361" transform="rotate(101.196 91.3623 29.8271)" fill="url(#paint29_linear_147_754)"/>
<rect x="90.3398" y="34.9951" width="5.34803" height="8.76361" transform="rotate(101.196 90.3398 34.9951)" fill="url(#paint30_linear_147_754)"/>
<path d="M89.3169 40.1641L88.861 42.4674C88.5393 44.0927 86.9609 45.1495 85.3356 44.8278L82.6246 44.2913C80.9993 43.9696 79.9425 42.3912 80.2642 40.7659L80.7201 38.4625L89.3169 40.1641Z" fill="url(#paint31_linear_147_754)"/>
<rect x="161.183" y="80.2012" width="25.8745" height="36.5527" transform="rotate(2.24773 161.183 80.2012)" fill="#00C2CE" fill-opacity="0.5"/>
<g filter="url(#filter2_d_147_754)">
<path d="M170.522 89.9601L165.668 89.7696L160.814 89.5791L159.749 116.726L185.581 117.74L186.647 90.5931L185.413 90.5446L182.533 90.4316L177.68 90.2411L174.224 90.1054L170.522 89.9601Z" fill="url(#paint32_linear_147_754)"/>
</g>
<path d="M160.4 71.5958C160.465 69.9403 161.86 68.6508 163.515 68.7158L185.654 69.5847C187.309 69.6497 188.599 71.0445 188.534 72.7001L188.496 73.651L160.363 72.5467L160.4 71.5958Z" fill="url(#paint33_linear_147_754)"/>
<path d="M156.152 75.1637C156.217 73.5081 157.612 72.2187 159.268 72.2837L161.504 72.3714L161.167 80.9476L158.931 80.8599C157.276 80.7949 155.986 79.4001 156.051 77.7445L156.152 75.1637Z" fill="url(#paint34_linear_147_754)"/>
<rect x="161.426" y="72.3687" width="5.23769" height="8.58279" transform="rotate(2.24773 161.426 72.3687)" fill="url(#paint35_linear_147_754)"/>
<rect x="166.582" y="72.5708" width="5.23769" height="8.58279" transform="rotate(2.24773 166.582 72.5708)" fill="url(#paint36_linear_147_754)"/>
<rect x="171.737" y="72.7734" width="5.23769" height="8.58279" transform="rotate(2.24773 171.737 72.7734)" fill="url(#paint37_linear_147_754)"/>
<rect x="176.894" y="72.9756" width="5.23769" height="8.58279" transform="rotate(2.24773 176.894 72.9756)" fill="url(#paint38_linear_147_754)"/>
<rect x="182.05" y="73.1777" width="5.23769" height="8.58279" transform="rotate(2.24773 182.05 73.1777)" fill="url(#paint39_linear_147_754)"/>
<path d="M187.206 73.3804L189.442 73.4681C191.097 73.5331 192.387 74.9279 192.322 76.5835L192.22 79.1643C192.155 80.8199 190.76 82.1093 189.105 82.0443L186.869 81.9566L187.206 73.3804Z" fill="url(#paint40_linear_147_754)"/>
<path d="M154.41 119.535C154.475 117.88 155.87 116.59 157.526 116.655L159.761 116.743L159.425 125.319L157.189 125.231C155.533 125.166 154.244 123.772 154.309 122.116L154.41 119.535Z" fill="url(#paint41_linear_147_754)"/>
<rect x="159.684" y="116.74" width="5.23768" height="8.58279" transform="rotate(2.24773 159.684 116.74)" fill="url(#paint42_linear_147_754)"/>
<rect x="164.839" y="116.942" width="5.23768" height="8.58279" transform="rotate(2.24773 164.839 116.942)" fill="url(#paint43_linear_147_754)"/>
<rect x="169.995" y="117.145" width="5.23768" height="8.58279" transform="rotate(2.24773 169.995 117.145)" fill="url(#paint44_linear_147_754)"/>
<rect x="175.151" y="117.347" width="5.23768" height="8.58279" transform="rotate(2.24773 175.151 117.347)" fill="url(#paint45_linear_147_754)"/>
<rect x="180.308" y="117.55" width="5.23768" height="8.58279" transform="rotate(2.24773 180.308 117.55)" fill="url(#paint46_linear_147_754)"/>
<path d="M185.463 117.752L187.699 117.84C189.355 117.905 190.644 119.299 190.579 120.955L190.478 123.536C190.413 125.191 189.018 126.481 187.363 126.416L185.127 126.328L185.463 117.752Z" fill="url(#paint47_linear_147_754)"/>
<defs>
<filter id="filter0_d_147_754" x="0.872559" y="43.9438" width="86.6333" height="87.9092" filterUnits="userSpaceOnUse" color-interpolation-filters="sRGB">
<feFlood flood-opacity="0" result="BackgroundImageFix"/>
<feColorMatrix in="SourceAlpha" type="matrix" values="0 0 0 0 0 0 0 0 0 0 0 0 0 0 0 0 0 0 127 0" result="hardAlpha"/>
<feOffset dy="4"/>
<feGaussianBlur stdDeviation="9"/>
<feComposite in2="hardAlpha" operator="out"/>
<feColorMatrix type="matrix" values="0 0 0 0 0.592157 0 0 0 0 0.960784 0 0 0 0 0 0 0 0 1 0"/>
<feBlend mode="normal" in2="BackgroundImageFix" result="effect1_dropShadow_147_754"/>
<feBlend mode="normal" in="SourceGraphic" in2="effect1_dropShadow_147_754" result="shape"/>
</filter>
<filter id="filter1_d_147_754" x="71.3115" y="0.390625" width="68.3374" height="67.2803" filterUnits="userSpaceOnUse" color-interpolation-filters="sRGB">
<feFlood flood-opacity="0" result="BackgroundImageFix"/>
<feColorMatrix in="SourceAlpha" type="matrix" values="0 0 0 0 0 0 0 0 0 0 0 0 0 0 0 0 0 0 127 0" result="hardAlpha"/>
<feOffset dy="4"/>
<feGaussianBlur stdDeviation="9"/>
<feComposite in2="hardAlpha" operator="out"/>
<feColorMatrix type="matrix" values="0 0 0 0 0.592157 0 0 0 0 0.960784 0 0 0 0 0 0 0 0 1 0"/>
<feBlend mode="normal" in2="BackgroundImageFix" result="effect1_dropShadow_147_754"/>
<feBlend mode="normal" in="SourceGraphic" in2="effect1_dropShadow_147_754" result="shape"/>
</filter>
<filter id="filter2_d_147_754" x="141.749" y="75.5791" width="62.8979" height="64.1606" filterUnits="userSpaceOnUse" color-interpolation-filters="sRGB">
<feFlood flood-opacity="0" result="BackgroundImageFix"/>
<feColorMatrix in="SourceAlpha" type="matrix" values="0 0 0 0 0 0 0 0 0 0 0 0 0 0 0 0 0 0 127 0" result="hardAlpha"/>
<feOffset dy="4"/>
<feGaussianBlur stdDeviation="9"/>
<feComposite in2="hardAlpha" operator="out"/>
<feColorMatrix type="matrix" values="0 0 0 0 0.592157 0 0 0 0 0.960784 0 0 0 0 0 0 0 0 1 0"/>
<feBlend mode="normal" in2="BackgroundImageFix" result="effect1_dropShadow_147_754"/>
<feBlend mode="normal" in="SourceGraphic" in2="effect1_dropShadow_147_754" result="shape"/>
</filter>
<linearGradient id="paint0_linear_147_754" x1="50.7345" y1="103.625" x2="37.644" y2="64.1723" gradientUnits="userSpaceOnUse">
<stop offset="0.285837" stop-color="#97F500"/>
<stop offset="1" stop-color="#7BC800"/>
</linearGradient>
<linearGradient id="paint1_linear_147_754" x1="60.7839" y1="134.069" x2="58.8798" y2="128.33" gradientUnits="userSpaceOnUse">
<stop stop-color="#545454"/>
<stop offset="1" stop-color="#505050"/>
</linearGradient>
<linearGradient id="paint2_linear_147_754" x1="76.7513" y1="126.086" x2="80.0467" y2="105.206" gradientUnits="userSpaceOnUse">
<stop stop-color="#292929"/>
<stop offset="1" stop-color="#525252"/>
</linearGradient>
<linearGradient id="paint3_linear_147_754" x1="88.0479" y1="119.214" x2="78.3448" y2="137.993" gradientUnits="userSpaceOnUse">
<stop stop-color="#292929"/>
<stop offset="1" stop-color="#525252"/>
</linearGradient>
<linearGradient id="paint4_linear_147_754" x1="80.5553" y1="121.7" x2="70.8521" y2="140.479" gradientUnits="userSpaceOnUse">
<stop stop-color="#292929"/>
<stop offset="1" stop-color="#525252"/>
</linearGradient>
<linearGradient id="paint5_linear_147_754" x1="73.0621" y1="124.186" x2="63.3589" y2="142.965" gradientUnits="userSpaceOnUse">
<stop stop-color="#292929"/>
<stop offset="1" stop-color="#525252"/>
</linearGradient>
<linearGradient id="paint6_linear_147_754" x1="65.5684" y1="126.673" x2="55.8653" y2="145.452" gradientUnits="userSpaceOnUse">
<stop stop-color="#292929"/>
<stop offset="1" stop-color="#525252"/>
</linearGradient>
<linearGradient id="paint7_linear_147_754" x1="58.0753" y1="129.158" x2="48.3721" y2="147.938" gradientUnits="userSpaceOnUse">
<stop stop-color="#292929"/>
<stop offset="1" stop-color="#525252"/>
</linearGradient>
<linearGradient id="paint8_linear_147_754" x1="31.7918" y1="141.003" x2="35.0873" y2="120.124" gradientUnits="userSpaceOnUse">
<stop stop-color="#292929"/>
<stop offset="1" stop-color="#525252"/>
</linearGradient>
<linearGradient id="paint9_linear_147_754" x1="55.3543" y1="61.5987" x2="58.6498" y2="40.7192" gradientUnits="userSpaceOnUse">
<stop stop-color="#292929"/>
<stop offset="1" stop-color="#525252"/>
</linearGradient>
<linearGradient id="paint10_linear_147_754" x1="66.651" y1="54.7263" x2="56.9478" y2="73.5056" gradientUnits="userSpaceOnUse">
<stop stop-color="#292929"/>
<stop offset="1" stop-color="#525252"/>
</linearGradient>
<linearGradient id="paint11_linear_147_754" x1="59.1583" y1="57.2121" x2="49.4551" y2="75.9914" gradientUnits="userSpaceOnUse">
<stop stop-color="#292929"/>
<stop offset="1" stop-color="#525252"/>
</linearGradient>
<linearGradient id="paint12_linear_147_754" x1="51.6651" y1="59.6984" x2="41.9619" y2="78.4777" gradientUnits="userSpaceOnUse">
<stop stop-color="#292929"/>
<stop offset="1" stop-color="#525252"/>
</linearGradient>
<linearGradient id="paint13_linear_147_754" x1="44.1715" y1="62.1848" x2="34.4683" y2="80.9641" gradientUnits="userSpaceOnUse">
<stop stop-color="#292929"/>
<stop offset="1" stop-color="#525252"/>
</linearGradient>
<linearGradient id="paint14_linear_147_754" x1="36.6783" y1="64.6711" x2="26.9751" y2="83.4504" gradientUnits="userSpaceOnUse">
<stop stop-color="#292929"/>
<stop offset="1" stop-color="#525252"/>
</linearGradient>
<linearGradient id="paint15_linear_147_754" x1="10.3948" y1="76.5162" x2="13.6903" y2="55.6367" gradientUnits="userSpaceOnUse">
<stop stop-color="#292929"/>
<stop offset="1" stop-color="#525252"/>
</linearGradient>
<linearGradient id="paint16_linear_147_754" x1="119.086" y1="32.7237" x2="91.8743" y2="27.3377" gradientUnits="userSpaceOnUse">
<stop offset="0.285837" stop-color="#97F500"/>
<stop offset="1" stop-color="#7BC800"/>
</linearGradient>
<linearGradient id="paint17_linear_147_754" x1="140.068" y1="36.9103" x2="136.11" y2="36.1269" gradientUnits="userSpaceOnUse">
<stop stop-color="#545454"/>
<stop offset="1" stop-color="#505050"/>
</linearGradient>
<linearGradient id="paint18_linear_147_754" x1="140.689" y1="25.0139" x2="129.653" y2="16.2285" gradientUnits="userSpaceOnUse">
<stop stop-color="#292929"/>
<stop offset="1" stop-color="#525252"/>
</linearGradient>
<linearGradient id="paint19_linear_147_754" x1="145.686" y1="21.0167" x2="139.21" y2="33.5489" gradientUnits="userSpaceOnUse">
<stop stop-color="#292929"/>
<stop offset="1" stop-color="#525252"/>
</linearGradient>
<linearGradient id="paint20_linear_147_754" x1="144.663" y1="26.1857" x2="138.188" y2="38.7179" gradientUnits="userSpaceOnUse">
<stop stop-color="#292929"/>
<stop offset="1" stop-color="#525252"/>
</linearGradient>
<linearGradient id="paint21_linear_147_754" x1="143.64" y1="31.3541" x2="137.165" y2="43.8863" gradientUnits="userSpaceOnUse">
<stop stop-color="#292929"/>
<stop offset="1" stop-color="#525252"/>
</linearGradient>
<linearGradient id="paint22_linear_147_754" x1="142.617" y1="36.5231" x2="136.142" y2="49.0553" gradientUnits="userSpaceOnUse">
<stop stop-color="#292929"/>
<stop offset="1" stop-color="#525252"/>
</linearGradient>
<linearGradient id="paint23_linear_147_754" x1="141.594" y1="41.6905" x2="135.119" y2="54.2228" gradientUnits="userSpaceOnUse">
<stop stop-color="#292929"/>
<stop offset="1" stop-color="#525252"/>
</linearGradient>
<linearGradient id="paint24_linear_147_754" x1="134.551" y1="56.0241" x2="123.515" y2="47.2388" gradientUnits="userSpaceOnUse">
<stop stop-color="#292929"/>
<stop offset="1" stop-color="#525252"/>
</linearGradient>
<linearGradient id="paint25_linear_147_754" x1="96.2094" y1="16.2087" x2="85.1729" y2="7.42333" gradientUnits="userSpaceOnUse">
<stop stop-color="#292929"/>
<stop offset="1" stop-color="#525252"/>
</linearGradient>
<linearGradient id="paint26_linear_147_754" x1="101.206" y1="12.2115" x2="94.7305" y2="24.7438" gradientUnits="userSpaceOnUse">
<stop stop-color="#292929"/>
<stop offset="1" stop-color="#525252"/>
</linearGradient>
<linearGradient id="paint27_linear_147_754" x1="100.183" y1="17.3805" x2="93.7075" y2="29.9127" gradientUnits="userSpaceOnUse">
<stop stop-color="#292929"/>
<stop offset="1" stop-color="#525252"/>
</linearGradient>
<linearGradient id="paint28_linear_147_754" x1="99.1604" y1="22.5489" x2="92.6851" y2="35.0812" gradientUnits="userSpaceOnUse">
<stop stop-color="#292929"/>
<stop offset="1" stop-color="#525252"/>
</linearGradient>
<linearGradient id="paint29_linear_147_754" x1="98.1365" y1="27.7174" x2="91.6611" y2="40.2496" gradientUnits="userSpaceOnUse">
<stop stop-color="#292929"/>
<stop offset="1" stop-color="#525252"/>
</linearGradient>
<linearGradient id="paint30_linear_147_754" x1="97.114" y1="32.8854" x2="90.6387" y2="45.4176" gradientUnits="userSpaceOnUse">
<stop stop-color="#292929"/>
<stop offset="1" stop-color="#525252"/>
</linearGradient>
<linearGradient id="paint31_linear_147_754" x1="90.0712" y1="47.2189" x2="79.0347" y2="38.4336" gradientUnits="userSpaceOnUse">
<stop stop-color="#292929"/>
<stop offset="1" stop-color="#525252"/>
</linearGradient>
<linearGradient id="paint32_linear_147_754" x1="173.731" y1="90.0861" x2="172.665" y2="117.233" gradientUnits="userSpaceOnUse">
<stop offset="0.285837" stop-color="#97F500"/>
<stop offset="1" stop-color="#7BC800"/>
</linearGradient>
<linearGradient id="paint33_linear_147_754" x1="174.584" y1="69.1503" x2="174.429" y2="73.0989" gradientUnits="userSpaceOnUse">
<stop stop-color="#545454"/>
<stop offset="1" stop-color="#505050"/>
</linearGradient>
<linearGradient id="paint34_linear_147_754" x1="162.98" y1="70.3616" x2="156.162" y2="82.3771" gradientUnits="userSpaceOnUse">
<stop stop-color="#292929"/>
<stop offset="1" stop-color="#525252"/>
</linearGradient>
<linearGradient id="paint35_linear_147_754" x1="168.06" y1="70.3024" x2="161.718" y2="82.5761" gradientUnits="userSpaceOnUse">
<stop stop-color="#292929"/>
<stop offset="1" stop-color="#525252"/>
</linearGradient>
<linearGradient id="paint36_linear_147_754" x1="173.216" y1="70.5046" x2="166.875" y2="82.7782" gradientUnits="userSpaceOnUse">
<stop stop-color="#292929"/>
<stop offset="1" stop-color="#525252"/>
</linearGradient>
<linearGradient id="paint37_linear_147_754" x1="178.372" y1="70.7072" x2="172.03" y2="82.9809" gradientUnits="userSpaceOnUse">
<stop stop-color="#292929"/>
<stop offset="1" stop-color="#525252"/>
</linearGradient>
<linearGradient id="paint38_linear_147_754" x1="183.528" y1="70.9094" x2="177.187" y2="83.183" gradientUnits="userSpaceOnUse">
<stop stop-color="#292929"/>
<stop offset="1" stop-color="#525252"/>
</linearGradient>
<linearGradient id="paint39_linear_147_754" x1="188.684" y1="71.1115" x2="182.342" y2="83.3852" gradientUnits="userSpaceOnUse">
<stop stop-color="#292929"/>
<stop offset="1" stop-color="#525252"/>
</linearGradient>
<linearGradient id="paint40_linear_147_754" x1="193.916" y1="71.5759" x2="187.098" y2="83.5914" gradientUnits="userSpaceOnUse">
<stop stop-color="#292929"/>
<stop offset="1" stop-color="#525252"/>
</linearGradient>
<linearGradient id="paint41_linear_147_754" x1="161.238" y1="114.733" x2="154.42" y2="126.749" gradientUnits="userSpaceOnUse">
<stop stop-color="#292929"/>
<stop offset="1" stop-color="#525252"/>
</linearGradient>
<linearGradient id="paint42_linear_147_754" x1="166.318" y1="114.674" x2="159.976" y2="126.948" gradientUnits="userSpaceOnUse">
<stop stop-color="#292929"/>
<stop offset="1" stop-color="#525252"/>
</linearGradient>
<linearGradient id="paint43_linear_147_754" x1="171.474" y1="114.876" x2="165.132" y2="127.15" gradientUnits="userSpaceOnUse">
<stop stop-color="#292929"/>
<stop offset="1" stop-color="#525252"/>
</linearGradient>
<linearGradient id="paint44_linear_147_754" x1="176.63" y1="115.079" x2="170.288" y2="127.352" gradientUnits="userSpaceOnUse">
<stop stop-color="#292929"/>
<stop offset="1" stop-color="#525252"/>
</linearGradient>
<linearGradient id="paint45_linear_147_754" x1="181.786" y1="115.281" x2="175.444" y2="127.555" gradientUnits="userSpaceOnUse">
<stop stop-color="#292929"/>
<stop offset="1" stop-color="#525252"/>
</linearGradient>
<linearGradient id="paint46_linear_147_754" x1="186.942" y1="115.484" x2="180.6" y2="127.757" gradientUnits="userSpaceOnUse">
<stop stop-color="#292929"/>
<stop offset="1" stop-color="#525252"/>
</linearGradient>
<linearGradient id="paint47_linear_147_754" x1="192.174" y1="115.948" x2="185.355" y2="127.963" gradientUnits="userSpaceOnUse">
<stop stop-color="#292929"/>
<stop offset="1" stop-color="#525252"/>
</linearGradient>
</defs>
</svg>
