<svg width="210" height="147" viewBox="0 0 210 147" fill="none" xmlns="http://www.w3.org/2000/svg">
<rect x="19.3652" y="105.586" width="39.5893" height="55.9274" transform="rotate(-70.0357 19.3652 105.586)" fill="#00C2CE" fill-opacity="0.5"/>
<g filter="url(#filter0_d_147_753)">
<path d="M37.9376 96.5173L35.4 103.503L32.8623 110.489L71.932 124.681L85.4375 87.5031L46.3679 73.3105L45.7227 75.0866L44.2173 79.2306L41.6797 86.2163L39.8731 91.1892L37.9376 96.5173Z" fill="url(#paint0_linear_147_753)"/>
</g>
<path d="M4.96425 102.177C3.40696 101.611 2.60313 99.8904 3.16883 98.3331L15.8289 63.4821C16.3947 61.9249 18.1157 61.121 19.673 61.6867L22.5361 62.7268L7.8274 103.217L4.96425 102.177Z" fill="url(#paint1_linear_147_753)"/>
<path d="M8.18642 110.029C6.62913 109.463 5.82529 107.742 6.391 106.185L8.10292 101.473L20.4458 105.956L18.7339 110.669C18.1682 112.226 16.4472 113.03 14.8899 112.464L8.18642 110.029Z" fill="url(#paint2_linear_147_753)"/>
<rect x="8.0625" y="101.584" width="8.01391" height="13.1321" transform="rotate(-70.0357 8.0625 101.584)" fill="url(#paint3_linear_147_753)"/>
<rect x="10.7578" y="94.1646" width="8.01391" height="13.1321" transform="rotate(-70.0357 10.7578 94.1646)" fill="url(#paint4_linear_147_753)"/>
<rect x="13.4531" y="86.7441" width="8.01391" height="13.1321" transform="rotate(-70.0357 13.4531 86.7441)" fill="url(#paint5_linear_147_753)"/>
<rect x="16.1489" y="79.3228" width="8.01391" height="13.1321" transform="rotate(-70.0357 16.1489 79.3228)" fill="url(#paint6_linear_147_753)"/>
<rect x="18.8447" y="71.9023" width="8.01391" height="13.1321" transform="rotate(-70.0357 18.8447 71.9023)" fill="url(#paint7_linear_147_753)"/>
<path d="M21.5405 64.4819L23.2524 59.7693C23.8182 58.212 25.5392 57.4082 27.0965 57.9739L33.8 60.4091C35.3572 60.9748 36.1611 62.6958 35.5954 64.2531L33.8835 68.9657L21.5405 64.4819Z" fill="url(#paint8_linear_147_753)"/>
<path d="M72.0473 133.228C70.49 132.662 69.6861 130.941 70.2518 129.384L71.9638 124.671L84.3067 129.155L82.5948 133.868C82.0291 135.425 80.308 136.229 78.7507 135.663L72.0473 133.228Z" fill="url(#paint9_linear_147_753)"/>
<rect x="71.9233" y="124.783" width="8.01391" height="13.1321" transform="rotate(-70.0357 71.9233 124.783)" fill="url(#paint10_linear_147_753)"/>
<rect x="74.6187" y="117.363" width="8.01391" height="13.1321" transform="rotate(-70.0357 74.6187 117.363)" fill="url(#paint11_linear_147_753)"/>
<rect x="77.314" y="109.943" width="8.01391" height="13.1321" transform="rotate(-70.0357 77.314 109.943)" fill="url(#paint12_linear_147_753)"/>
<rect x="80.0098" y="102.522" width="8.01391" height="13.1321" transform="rotate(-70.0357 80.0098 102.522)" fill="url(#paint13_linear_147_753)"/>
<rect x="82.7056" y="95.1016" width="8.01391" height="13.1321" transform="rotate(-70.0357 82.7056 95.1016)" fill="url(#paint14_linear_147_753)"/>
<path d="M85.4014 87.6807L87.1133 82.9681C87.679 81.4108 89.4 80.6069 90.9573 81.1726L97.6608 83.6078C99.2181 84.1735 100.022 85.8945 99.4562 87.4518L97.7443 92.1644L85.4014 87.6807Z" fill="url(#paint15_linear_147_753)"/>
<rect x="95.146" y="24.9658" width="26.4196" height="37.3228" transform="rotate(-27.2096 95.146 24.9658)" fill="#00C2CE" fill-opacity="0.5"/>
<g filter="url(#filter1_d_147_753)">
<path d="M108.35 28.9529L103.939 31.2208L99.5278 33.4888L112.212 58.159L135.688 46.089L123.004 21.4189L121.882 21.9954L119.266 23.3408L114.854 25.6087L111.714 27.2232L108.35 28.9529Z" fill="url(#paint16_linear_147_753)"/>
</g>
<path d="M90.0998 17.6519C89.3422 16.1784 89.9225 14.3697 91.396 13.6121L111.627 3.2104C113.101 2.45281 114.909 3.03317 115.667 4.50667L116.14 5.42705L90.573 18.5723L90.0998 17.6519Z" fill="url(#paint17_linear_147_753)"/>
<path d="M88.1149 22.9561C87.3573 21.4826 87.9377 19.6739 89.4112 18.9163L91.4994 17.8427L95.5065 25.6365L93.4183 26.7102C91.9448 27.4678 90.1362 26.8874 89.3786 25.4139L88.1149 22.9561Z" fill="url(#paint18_linear_147_753)"/>
<rect x="91.4282" y="17.8799" width="5.34803" height="8.76361" transform="rotate(-27.2096 91.4282 17.8799)" fill="url(#paint19_linear_147_753)"/>
<rect x="96.1147" y="15.4702" width="5.34803" height="8.76361" transform="rotate(-27.2096 96.1147 15.4702)" fill="url(#paint20_linear_147_753)"/>
<rect x="100.8" y="13.061" width="5.34803" height="8.76361" transform="rotate(-27.2096 100.8 13.061)" fill="url(#paint21_linear_147_753)"/>
<rect x="105.486" y="10.6519" width="5.34803" height="8.76361" transform="rotate(-27.2096 105.486 10.6519)" fill="url(#paint22_linear_147_753)"/>
<rect x="110.171" y="8.24316" width="5.34803" height="8.76361" transform="rotate(-27.2096 110.171 8.24316)" fill="url(#paint23_linear_147_753)"/>
<path d="M114.857 5.83398L116.946 4.76035C118.419 4.00276 120.228 4.58312 120.985 6.05663L122.249 8.51442C123.007 9.98792 122.426 11.7966 120.953 12.5542L118.865 13.6278L114.857 5.83398Z" fill="url(#paint24_linear_147_753)"/>
<path d="M108.847 63.2823C108.089 61.8088 108.67 60.0001 110.143 59.2425L112.231 58.1689L116.238 65.9627L114.15 67.0363C112.677 67.7939 110.868 67.2136 110.11 65.7401L108.847 63.2823Z" fill="url(#paint25_linear_147_753)"/>
<rect x="112.16" y="58.2061" width="5.34803" height="8.76361" transform="rotate(-27.2096 112.16 58.2061)" fill="url(#paint26_linear_147_753)"/>
<rect x="116.847" y="55.7964" width="5.34803" height="8.76361" transform="rotate(-27.2096 116.847 55.7964)" fill="url(#paint27_linear_147_753)"/>
<rect x="121.532" y="53.3872" width="5.34803" height="8.76361" transform="rotate(-27.2096 121.532 53.3872)" fill="url(#paint28_linear_147_753)"/>
<rect x="126.218" y="50.9785" width="5.34803" height="8.76361" transform="rotate(-27.2096 126.218 50.9785)" fill="url(#paint29_linear_147_753)"/>
<rect x="130.903" y="48.5693" width="5.34803" height="8.76361" transform="rotate(-27.2096 130.903 48.5693)" fill="url(#paint30_linear_147_753)"/>
<path d="M135.589 46.1602L137.678 45.0865C139.151 44.3289 140.96 44.9093 141.717 46.3828L142.981 48.8406C143.739 50.3141 143.158 52.1228 141.685 52.8804L139.596 53.954L135.589 46.1602Z" fill="url(#paint31_linear_147_753)"/>
<rect x="186.004" y="81.6372" width="25.8745" height="36.5527" transform="rotate(64.5036 186.004 81.6372)" fill="#00C2CE" fill-opacity="0.5"/>
<g filter="url(#filter2_d_147_753)">
<path d="M181.715 94.4463L179.624 90.0618L177.533 85.6772L153.011 97.3717L164.139 120.706L188.661 109.012L188.129 107.897L186.889 105.296L184.798 100.912L183.309 97.7904L181.715 94.4463Z" fill="url(#paint32_linear_147_753)"/>
</g>
<path d="M193.255 76.9383C194.751 76.2251 196.541 76.8593 197.254 78.3548L206.791 98.3526C207.504 99.8481 206.87 101.639 205.375 102.352L204.516 102.761L192.396 77.348L193.255 76.9383Z" fill="url(#paint33_linear_147_753)"/>
<path d="M188.12 74.8402C189.616 74.127 191.406 74.7612 192.119 76.2567L193.083 78.2764L185.336 81.9709L184.373 79.9512C183.659 78.4557 184.294 76.6652 185.789 75.952L188.12 74.8402Z" fill="url(#paint34_linear_147_753)"/>
<rect x="193.049" y="78.2061" width="5.23769" height="8.58279" transform="rotate(64.5036 193.049 78.2061)" fill="url(#paint35_linear_147_753)"/>
<rect x="195.271" y="82.8638" width="5.23769" height="8.58279" transform="rotate(64.5036 195.271 82.8638)" fill="url(#paint36_linear_147_753)"/>
<rect x="197.491" y="87.5205" width="5.23769" height="8.58279" transform="rotate(64.5036 197.491 87.5205)" fill="url(#paint37_linear_147_753)"/>
<rect x="199.712" y="92.1787" width="5.23769" height="8.58279" transform="rotate(64.5036 199.712 92.1787)" fill="url(#paint38_linear_147_753)"/>
<rect x="201.934" y="96.8359" width="5.23769" height="8.58279" transform="rotate(64.5036 201.934 96.8359)" fill="url(#paint39_linear_147_753)"/>
<path d="M204.155 101.493L205.118 103.513C205.831 105.008 205.197 106.799 203.702 107.512L201.37 108.624C199.875 109.337 198.084 108.703 197.371 107.207L196.408 105.188L204.155 101.493Z" fill="url(#paint40_linear_147_753)"/>
<path d="M148.039 93.9545C149.534 93.2412 151.325 93.8754 152.038 95.3709L153.001 97.3907L145.254 101.085L144.291 99.0654C143.578 97.5699 144.212 95.7794 145.707 95.0662L148.039 93.9545Z" fill="url(#paint41_linear_147_753)"/>
<rect x="152.968" y="97.3203" width="5.23768" height="8.58279" transform="rotate(64.5036 152.968 97.3203)" fill="url(#paint42_linear_147_753)"/>
<rect x="155.188" y="101.978" width="5.23768" height="8.58279" transform="rotate(64.5036 155.188 101.978)" fill="url(#paint43_linear_147_753)"/>
<rect x="157.41" y="106.635" width="5.23768" height="8.58279" transform="rotate(64.5036 157.41 106.635)" fill="url(#paint44_linear_147_753)"/>
<rect x="159.631" y="111.292" width="5.23768" height="8.58279" transform="rotate(64.5036 159.631 111.292)" fill="url(#paint45_linear_147_753)"/>
<rect x="161.852" y="115.95" width="5.23768" height="8.58279" transform="rotate(64.5036 161.852 115.95)" fill="url(#paint46_linear_147_753)"/>
<path d="M164.073 120.607L165.036 122.627C165.75 124.123 165.115 125.913 163.62 126.626L161.289 127.738C159.793 128.451 158.003 127.817 157.29 126.322L156.326 124.302L164.073 120.607Z" fill="url(#paint47_linear_147_753)"/>
<defs>
<filter id="filter0_d_147_753" x="14.8623" y="59.3105" width="88.5752" height="87.3706" filterUnits="userSpaceOnUse" color-interpolation-filters="sRGB">
<feFlood flood-opacity="0" result="BackgroundImageFix"/>
<feColorMatrix in="SourceAlpha" type="matrix" values="0 0 0 0 0 0 0 0 0 0 0 0 0 0 0 0 0 0 127 0" result="hardAlpha"/>
<feOffset dy="4"/>
<feGaussianBlur stdDeviation="9"/>
<feComposite in2="hardAlpha" operator="out"/>
<feColorMatrix type="matrix" values="0 0 0 0 0.592157 0 0 0 0 0.960784 0 0 0 0 0 0 0 0 1 0"/>
<feBlend mode="normal" in2="BackgroundImageFix" result="effect1_dropShadow_147_753"/>
<feBlend mode="normal" in="SourceGraphic" in2="effect1_dropShadow_147_753" result="shape"/>
</filter>
<filter id="filter1_d_147_753" x="81.5278" y="7.41895" width="72.1597" height="72.7402" filterUnits="userSpaceOnUse" color-interpolation-filters="sRGB">
<feFlood flood-opacity="0" result="BackgroundImageFix"/>
<feColorMatrix in="SourceAlpha" type="matrix" values="0 0 0 0 0 0 0 0 0 0 0 0 0 0 0 0 0 0 127 0" result="hardAlpha"/>
<feOffset dy="4"/>
<feGaussianBlur stdDeviation="9"/>
<feComposite in2="hardAlpha" operator="out"/>
<feColorMatrix type="matrix" values="0 0 0 0 0.592157 0 0 0 0 0.960784 0 0 0 0 0 0 0 0 1 0"/>
<feBlend mode="normal" in2="BackgroundImageFix" result="effect1_dropShadow_147_753"/>
<feBlend mode="normal" in="SourceGraphic" in2="effect1_dropShadow_147_753" result="shape"/>
</filter>
<filter id="filter2_d_147_753" x="135.011" y="71.6772" width="71.6504" height="71.0288" filterUnits="userSpaceOnUse" color-interpolation-filters="sRGB">
<feFlood flood-opacity="0" result="BackgroundImageFix"/>
<feColorMatrix in="SourceAlpha" type="matrix" values="0 0 0 0 0 0 0 0 0 0 0 0 0 0 0 0 0 0 127 0" result="hardAlpha"/>
<feOffset dy="4"/>
<feGaussianBlur stdDeviation="9"/>
<feComposite in2="hardAlpha" operator="out"/>
<feColorMatrix type="matrix" values="0 0 0 0 0.592157 0 0 0 0 0.960784 0 0 0 0 0 0 0 0 1 0"/>
<feBlend mode="normal" in2="BackgroundImageFix" result="effect1_dropShadow_147_753"/>
<feBlend mode="normal" in="SourceGraphic" in2="effect1_dropShadow_147_753" result="shape"/>
</filter>
<linearGradient id="paint0_linear_147_753" x1="39.6151" y1="91.8996" x2="78.6848" y2="106.092" gradientUnits="userSpaceOnUse">
<stop offset="0.285837" stop-color="#97F500"/>
<stop offset="1" stop-color="#7BC800"/>
</linearGradient>
<linearGradient id="paint1_linear_147_753" x1="9.49889" y1="80.9076" x2="15.1818" y2="82.972" gradientUnits="userSpaceOnUse">
<stop stop-color="#545454"/>
<stop offset="1" stop-color="#505050"/>
</linearGradient>
<linearGradient id="paint2_linear_147_753" x1="5.86114" y1="98.3845" x2="20.1989" y2="113.916" gradientUnits="userSpaceOnUse">
<stop stop-color="#292929"/>
<stop offset="1" stop-color="#525252"/>
</linearGradient>
<linearGradient id="paint3_linear_147_753" x1="18.2135" y1="98.423" x2="8.51029" y2="117.202" gradientUnits="userSpaceOnUse">
<stop stop-color="#292929"/>
<stop offset="1" stop-color="#525252"/>
</linearGradient>
<linearGradient id="paint4_linear_147_753" x1="20.9088" y1="91.0031" x2="11.2056" y2="109.782" gradientUnits="userSpaceOnUse">
<stop stop-color="#292929"/>
<stop offset="1" stop-color="#525252"/>
</linearGradient>
<linearGradient id="paint5_linear_147_753" x1="23.6041" y1="83.5827" x2="13.9009" y2="102.362" gradientUnits="userSpaceOnUse">
<stop stop-color="#292929"/>
<stop offset="1" stop-color="#525252"/>
</linearGradient>
<linearGradient id="paint6_linear_147_753" x1="26.2999" y1="76.1613" x2="16.5967" y2="94.9406" gradientUnits="userSpaceOnUse">
<stop stop-color="#292929"/>
<stop offset="1" stop-color="#525252"/>
</linearGradient>
<linearGradient id="paint7_linear_147_753" x1="28.9957" y1="68.7409" x2="19.2925" y2="87.5202" gradientUnits="userSpaceOnUse">
<stop stop-color="#292929"/>
<stop offset="1" stop-color="#525252"/>
</linearGradient>
<linearGradient id="paint8_linear_147_753" x1="22.035" y1="53.8616" x2="36.3727" y2="69.3935" gradientUnits="userSpaceOnUse">
<stop stop-color="#292929"/>
<stop offset="1" stop-color="#525252"/>
</linearGradient>
<linearGradient id="paint9_linear_147_753" x1="69.722" y1="121.583" x2="84.0597" y2="137.115" gradientUnits="userSpaceOnUse">
<stop stop-color="#292929"/>
<stop offset="1" stop-color="#525252"/>
</linearGradient>
<linearGradient id="paint10_linear_147_753" x1="82.0743" y1="121.622" x2="72.3711" y2="140.401" gradientUnits="userSpaceOnUse">
<stop stop-color="#292929"/>
<stop offset="1" stop-color="#525252"/>
</linearGradient>
<linearGradient id="paint11_linear_147_753" x1="84.7696" y1="114.202" x2="75.0664" y2="132.981" gradientUnits="userSpaceOnUse">
<stop stop-color="#292929"/>
<stop offset="1" stop-color="#525252"/>
</linearGradient>
<linearGradient id="paint12_linear_147_753" x1="87.4649" y1="106.781" x2="77.7617" y2="125.561" gradientUnits="userSpaceOnUse">
<stop stop-color="#292929"/>
<stop offset="1" stop-color="#525252"/>
</linearGradient>
<linearGradient id="paint13_linear_147_753" x1="90.1607" y1="99.3605" x2="80.4575" y2="118.14" gradientUnits="userSpaceOnUse">
<stop stop-color="#292929"/>
<stop offset="1" stop-color="#525252"/>
</linearGradient>
<linearGradient id="paint14_linear_147_753" x1="92.8565" y1="91.9401" x2="83.1533" y2="110.719" gradientUnits="userSpaceOnUse">
<stop stop-color="#292929"/>
<stop offset="1" stop-color="#525252"/>
</linearGradient>
<linearGradient id="paint15_linear_147_753" x1="85.8958" y1="77.0603" x2="100.234" y2="92.5923" gradientUnits="userSpaceOnUse">
<stop stop-color="#292929"/>
<stop offset="1" stop-color="#525252"/>
</linearGradient>
<linearGradient id="paint16_linear_147_753" x1="111.266" y1="27.4538" x2="123.95" y2="52.124" gradientUnits="userSpaceOnUse">
<stop offset="0.285837" stop-color="#97F500"/>
<stop offset="1" stop-color="#7BC800"/>
</linearGradient>
<linearGradient id="paint17_linear_147_753" x1="101.512" y1="8.41127" x2="103.357" y2="11.9997" gradientUnits="userSpaceOnUse">
<stop stop-color="#545454"/>
<stop offset="1" stop-color="#505050"/>
</linearGradient>
<linearGradient id="paint18_linear_147_753" x1="91.803" y1="15.3143" x2="91.7746" y2="29.4206" gradientUnits="userSpaceOnUse">
<stop stop-color="#292929"/>
<stop offset="1" stop-color="#525252"/>
</linearGradient>
<linearGradient id="paint19_linear_147_753" x1="98.2024" y1="15.7701" x2="91.7271" y2="28.3024" gradientUnits="userSpaceOnUse">
<stop stop-color="#292929"/>
<stop offset="1" stop-color="#525252"/>
</linearGradient>
<linearGradient id="paint20_linear_147_753" x1="102.889" y1="13.3605" x2="96.4136" y2="25.8927" gradientUnits="userSpaceOnUse">
<stop stop-color="#292929"/>
<stop offset="1" stop-color="#525252"/>
</linearGradient>
<linearGradient id="paint21_linear_147_753" x1="107.574" y1="10.9513" x2="101.099" y2="23.4835" gradientUnits="userSpaceOnUse">
<stop stop-color="#292929"/>
<stop offset="1" stop-color="#525252"/>
</linearGradient>
<linearGradient id="paint22_linear_147_753" x1="112.26" y1="8.5421" x2="105.785" y2="21.0743" gradientUnits="userSpaceOnUse">
<stop stop-color="#292929"/>
<stop offset="1" stop-color="#525252"/>
</linearGradient>
<linearGradient id="paint23_linear_147_753" x1="116.945" y1="6.13341" x2="110.47" y2="18.6656" gradientUnits="userSpaceOnUse">
<stop stop-color="#292929"/>
<stop offset="1" stop-color="#525252"/>
</linearGradient>
<linearGradient id="paint24_linear_147_753" x1="119.917" y1="0.860221" x2="119.889" y2="14.9665" gradientUnits="userSpaceOnUse">
<stop stop-color="#292929"/>
<stop offset="1" stop-color="#525252"/>
</linearGradient>
<linearGradient id="paint25_linear_147_753" x1="112.535" y1="55.6405" x2="112.506" y2="69.7467" gradientUnits="userSpaceOnUse">
<stop stop-color="#292929"/>
<stop offset="1" stop-color="#525252"/>
</linearGradient>
<linearGradient id="paint26_linear_147_753" x1="118.934" y1="56.0963" x2="112.459" y2="68.6285" gradientUnits="userSpaceOnUse">
<stop stop-color="#292929"/>
<stop offset="1" stop-color="#525252"/>
</linearGradient>
<linearGradient id="paint27_linear_147_753" x1="123.621" y1="53.6866" x2="117.146" y2="66.2189" gradientUnits="userSpaceOnUse">
<stop stop-color="#292929"/>
<stop offset="1" stop-color="#525252"/>
</linearGradient>
<linearGradient id="paint28_linear_147_753" x1="128.306" y1="51.2775" x2="121.831" y2="63.8097" gradientUnits="userSpaceOnUse">
<stop stop-color="#292929"/>
<stop offset="1" stop-color="#525252"/>
</linearGradient>
<linearGradient id="paint29_linear_147_753" x1="132.992" y1="48.8688" x2="126.517" y2="61.401" gradientUnits="userSpaceOnUse">
<stop stop-color="#292929"/>
<stop offset="1" stop-color="#525252"/>
</linearGradient>
<linearGradient id="paint30_linear_147_753" x1="137.677" y1="46.4596" x2="131.202" y2="58.9918" gradientUnits="userSpaceOnUse">
<stop stop-color="#292929"/>
<stop offset="1" stop-color="#525252"/>
</linearGradient>
<linearGradient id="paint31_linear_147_753" x1="140.649" y1="41.1864" x2="140.621" y2="55.2926" gradientUnits="userSpaceOnUse">
<stop stop-color="#292929"/>
<stop offset="1" stop-color="#525252"/>
</linearGradient>
<linearGradient id="paint32_linear_147_753" x1="183.097" y1="97.3446" x2="158.575" y2="109.039" gradientUnits="userSpaceOnUse">
<stop offset="0.285837" stop-color="#97F500"/>
<stop offset="1" stop-color="#7BC800"/>
</linearGradient>
<linearGradient id="paint33_linear_147_753" x1="202.023" y1="88.3537" x2="198.456" y2="90.0547" gradientUnits="userSpaceOnUse">
<stop stop-color="#545454"/>
<stop offset="1" stop-color="#505050"/>
</linearGradient>
<linearGradient id="paint34_linear_147_753" x1="195.549" y1="78.6477" x2="181.741" y2="78.2068" gradientUnits="userSpaceOnUse">
<stop stop-color="#292929"/>
<stop offset="1" stop-color="#525252"/>
</linearGradient>
<linearGradient id="paint35_linear_147_753" x1="199.684" y1="76.1398" x2="193.342" y2="88.4135" gradientUnits="userSpaceOnUse">
<stop stop-color="#292929"/>
<stop offset="1" stop-color="#525252"/>
</linearGradient>
<linearGradient id="paint36_linear_147_753" x1="201.905" y1="80.7975" x2="195.563" y2="93.0712" gradientUnits="userSpaceOnUse">
<stop stop-color="#292929"/>
<stop offset="1" stop-color="#525252"/>
</linearGradient>
<linearGradient id="paint37_linear_147_753" x1="204.126" y1="85.4543" x2="197.784" y2="97.7279" gradientUnits="userSpaceOnUse">
<stop stop-color="#292929"/>
<stop offset="1" stop-color="#525252"/>
</linearGradient>
<linearGradient id="paint38_linear_147_753" x1="206.347" y1="90.1125" x2="200.005" y2="102.386" gradientUnits="userSpaceOnUse">
<stop stop-color="#292929"/>
<stop offset="1" stop-color="#525252"/>
</linearGradient>
<linearGradient id="paint39_linear_147_753" x1="208.568" y1="94.7697" x2="202.226" y2="107.043" gradientUnits="userSpaceOnUse">
<stop stop-color="#292929"/>
<stop offset="1" stop-color="#525252"/>
</linearGradient>
<linearGradient id="paint40_linear_147_753" x1="208.876" y1="106.592" x2="195.067" y2="106.151" gradientUnits="userSpaceOnUse">
<stop stop-color="#292929"/>
<stop offset="1" stop-color="#525252"/>
</linearGradient>
<linearGradient id="paint41_linear_147_753" x1="155.467" y1="97.762" x2="141.659" y2="97.3211" gradientUnits="userSpaceOnUse">
<stop stop-color="#292929"/>
<stop offset="1" stop-color="#525252"/>
</linearGradient>
<linearGradient id="paint42_linear_147_753" x1="159.602" y1="95.2541" x2="153.26" y2="107.528" gradientUnits="userSpaceOnUse">
<stop stop-color="#292929"/>
<stop offset="1" stop-color="#525252"/>
</linearGradient>
<linearGradient id="paint43_linear_147_753" x1="161.823" y1="99.9113" x2="155.481" y2="112.185" gradientUnits="userSpaceOnUse">
<stop stop-color="#292929"/>
<stop offset="1" stop-color="#525252"/>
</linearGradient>
<linearGradient id="paint44_linear_147_753" x1="164.044" y1="104.569" x2="157.702" y2="116.842" gradientUnits="userSpaceOnUse">
<stop stop-color="#292929"/>
<stop offset="1" stop-color="#525252"/>
</linearGradient>
<linearGradient id="paint45_linear_147_753" x1="166.265" y1="109.226" x2="159.924" y2="121.5" gradientUnits="userSpaceOnUse">
<stop stop-color="#292929"/>
<stop offset="1" stop-color="#525252"/>
</linearGradient>
<linearGradient id="paint46_linear_147_753" x1="168.486" y1="113.884" x2="162.145" y2="126.158" gradientUnits="userSpaceOnUse">
<stop stop-color="#292929"/>
<stop offset="1" stop-color="#525252"/>
</linearGradient>
<linearGradient id="paint47_linear_147_753" x1="168.794" y1="125.706" x2="154.986" y2="125.265" gradientUnits="userSpaceOnUse">
<stop stop-color="#292929"/>
<stop offset="1" stop-color="#525252"/>
</linearGradient>
</defs>
</svg>
