<svg width="117" height="117" viewBox="0 0 117 117" fill="none" xmlns="http://www.w3.org/2000/svg">
<path fill-rule="evenodd" clip-rule="evenodd" d="M92.2856 61.1428C92.2856 62.2474 91.3902 63.1428 90.2856 63.1428H65.1428C64.0382 63.1428 63.1428 64.0382 63.1428 65.1428V90.2856C63.1428 91.3902 62.2474 92.2856 61.1428 92.2856H55.4285C54.3239 92.2856 53.4285 91.3902 53.4285 90.2856V65.1428C53.4285 64.0382 52.5331 63.1428 51.4285 63.1428H26.2856C25.1811 63.1428 24.2856 62.2474 24.2856 61.1428V55.4285C24.2856 54.3239 25.1811 53.4285 26.2856 53.4285H51.4285C52.5331 53.4285 53.4285 52.5331 53.4285 51.4285V26.2856C53.4285 25.1811 54.3239 24.2856 55.4285 24.2856H61.1428C62.2474 24.2856 63.1428 25.1811 63.1428 26.2856V51.4285C63.1428 52.5331 64.0382 53.4285 65.1428 53.4285H90.2856C91.3902 53.4285 92.2856 54.3239 92.2856 55.4285V61.1428Z" fill="white"/>
</svg>
