<svg width="41" height="41" viewBox="0 0 41 41" fill="none" xmlns="http://www.w3.org/2000/svg">
<g clip-path="url(#clip0_79_578)">
<path d="M8.54167 6.83334C6.65464 6.83334 5.125 8.37084 5.125 10.25V34.1667C5.125 36.0458 6.65464 37.5833 8.54167 37.5833H18.7917H22.2083H32.4583C34.346 37.5833 35.875 36.0458 35.875 34.1667V10.25C35.875 8.37084 34.346 6.83334 32.4583 6.83334H22.2083H18.7917H8.54167Z" fill="#BDC3C7"/>
<path d="M8.54167 5.125C6.65464 5.125 5.125 6.65464 5.125 8.54167V32.4583C5.125 34.346 6.65464 35.875 8.54167 35.875H18.7917H22.2083H32.4583C34.346 35.875 35.875 34.346 35.875 32.4583V8.54167C35.875 6.65464 34.346 5.125 32.4583 5.125H22.2083H18.7917H8.54167Z" fill="#ECF0F1"/>
<path d="M8.54167 5.125C6.65464 5.125 5.125 6.65464 5.125 8.54167V13.6667V15.375H35.875V13.6667V8.54167C35.875 6.65464 34.346 5.125 32.4583 5.125H22.2083H18.7917H8.54167Z" fill="#E74C3C"/>
<path d="M12.8125 9.39584C12.8125 9.73236 12.7462 10.0656 12.6174 10.3765C12.4887 10.6874 12.2999 10.9699 12.062 11.2078C11.824 11.4458 11.5415 11.6345 11.2306 11.7633C10.9197 11.8921 10.5865 11.9583 10.25 11.9583C9.91349 11.9583 9.58027 11.8921 9.26937 11.7633C8.95848 11.6345 8.67599 11.4458 8.43804 11.2078C8.20009 10.9699 8.01134 10.6874 7.88256 10.3765C7.75378 10.0656 7.6875 9.73236 7.6875 9.39584C7.6875 9.05933 7.75378 8.72611 7.88256 8.41522C8.01134 8.10432 8.20009 7.82183 8.43804 7.58388C8.67599 7.34593 8.95848 7.15718 9.26937 7.0284C9.58027 6.89962 9.91349 6.83334 10.25 6.83334C10.5865 6.83334 10.9197 6.89962 11.2306 7.0284C11.5415 7.15718 11.824 7.34593 12.062 7.58388C12.2999 7.82183 12.4887 8.10432 12.6174 8.41522C12.7462 8.72611 12.8125 9.05933 12.8125 9.39584Z" fill="#C0392B"/>
<path d="M33.3125 9.39584C33.3125 9.73236 33.2462 10.0656 33.1174 10.3765C32.9887 10.6874 32.7999 10.9699 32.562 11.2078C32.324 11.4458 32.0415 11.6345 31.7306 11.7633C31.4197 11.8921 31.0865 11.9583 30.75 11.9583C30.4135 11.9583 30.0803 11.8921 29.7694 11.7633C29.4585 11.6345 29.176 11.4458 28.938 11.2078C28.7001 10.9699 28.5113 10.6874 28.3826 10.3765C28.2538 10.0656 28.1875 9.73236 28.1875 9.39584C28.1875 9.05933 28.2538 8.72611 28.3826 8.41522C28.5113 8.10432 28.7001 7.82183 28.938 7.58388C29.176 7.34593 29.4585 7.15718 29.7694 7.0284C30.0803 6.89962 30.4135 6.83334 30.75 6.83334C31.0865 6.83334 31.4197 6.89962 31.7306 7.0284C32.0415 7.15718 32.324 7.34593 32.562 7.58388C32.7999 7.82183 32.9887 8.10432 33.1174 8.41522C33.2462 8.72611 33.3125 9.05933 33.3125 9.39584Z" fill="#C0392B"/>
<path d="M8.5415 18.7917V22.2084H11.9582V18.7917H8.5415ZM13.6665 18.7917V22.2084H17.0832V18.7917H13.6665ZM18.7915 18.7917V22.2084H22.2082V18.7917H18.7915ZM23.9165 18.7917V22.2084H27.3332V18.7917H23.9165ZM29.0415 18.7917V22.2084H32.4582V18.7917H29.0415Z" fill="#BDC3C7"/>
<path d="M8.5415 23.9167V27.3334H11.9582V23.9167H8.5415ZM13.6665 23.9167V27.3334H17.0832V23.9167H13.6665ZM18.7915 23.9167V27.3334H22.2082V23.9167H18.7915ZM23.9165 23.9167V27.3334H27.3332V23.9167H23.9165ZM29.0415 23.9167V27.3334H32.4582V23.9167H29.0415Z" fill="#BDC3C7"/>
<path d="M8.5415 29.0417V32.4584H11.9582V29.0417H8.5415ZM13.6665 29.0417V32.4584H17.0832V29.0417H13.6665ZM18.7915 29.0417V32.4584H22.2082V29.0417H18.7915ZM23.9165 29.0417V32.4584H27.3332V29.0417H23.9165ZM29.0415 29.0417V32.4584H32.4582V29.0417H29.0415Z" fill="#BDC3C7"/>
<path d="M40.2165 31.5046C40.2165 33.7889 39.309 35.9796 37.6938 37.5948C36.0786 39.21 33.8879 40.1175 31.6036 40.1175C29.3193 40.1175 27.1286 39.21 25.5134 37.5948C23.8981 35.9796 22.9907 33.7889 22.9907 31.5046C22.9907 29.2203 23.8981 27.0296 25.5134 25.4144C27.1286 23.7991 29.3193 22.8917 31.6036 22.8917C33.8879 22.8917 36.0786 23.7991 37.6938 25.4144C39.309 27.0296 40.2165 29.2203 40.2165 31.5046Z" fill="#34495E"/>
<path d="M31.6043 22.8917C26.4144 22.8917 22.2085 27.1626 22.2085 32.2876H23.775C23.775 28.0167 27.2805 24.4291 31.6043 24.4291C35.9281 24.4291 39.4336 28.0167 39.4336 32.2876H41.0002C41.0002 27.1626 36.7942 22.8917 31.6043 22.8917Z" fill="#2C3E50"/>
<path d="M32.3867 30.75V32.2875H33.1708H37.8688C38.301 32.2875 38.6512 31.9458 38.6512 31.6042C38.6512 31.0917 38.301 30.75 37.8688 30.75H33.1708H32.3867Z" fill="#BDC3C7"/>
<path d="M31.6042 26.1374C31.172 26.1374 30.8218 26.4791 30.8218 26.8208V29.8958V30.75H32.3866V29.8958V26.8208C32.3866 26.4791 32.0364 26.1374 31.6042 26.1374Z" fill="#BDC3C7"/>
<path d="M30.8013 31.8476L26.9258 35.7232L27.4794 36.2768L31.355 32.4013L30.8013 31.8476Z" fill="#C0392B"/>
<path d="M31.6041 29.8958C30.7397 29.8958 30.0376 30.75 30.0376 31.6042C30.0376 32.4583 30.7397 33.1417 31.6041 33.1417C32.4686 33.1417 33.1707 32.4583 33.1707 31.6042C33.1707 30.75 32.4686 29.8958 31.6041 29.8958ZM31.6041 30.75C32.0363 30.75 32.3866 31.0917 32.3866 31.6042C32.3866 31.9458 32.0363 32.2876 31.6041 32.2876C31.1719 32.2876 30.8217 31.9458 30.8217 31.6042C30.8217 31.0917 31.1719 30.75 31.6041 30.75Z" fill="#BDC3C7"/>
<path d="M31.6043 22.2083C26.4144 22.2083 22.2085 26.3083 22.2085 31.6042C22.2085 36.7292 26.4144 41 31.6043 41C36.7942 41 41.0002 36.7292 41.0002 31.6042C41.0002 26.3083 36.7942 22.2083 31.6043 22.2083ZM31.6043 23.7459C35.9281 23.7459 39.4336 27.1625 39.4336 31.6042C39.4336 35.875 35.9281 39.2917 31.6043 39.2917C27.2805 39.2917 23.775 35.875 23.775 31.6042C23.775 27.1625 27.2805 23.7459 31.6043 23.7459Z" fill="#95A5A6"/>
<path d="M32.3872 31.6041C32.3872 31.8117 32.3048 32.0109 32.1579 32.1577C32.0111 32.3046 31.8119 32.3871 31.6043 32.3871C31.3966 32.3871 31.1975 32.3046 31.0506 32.1577C30.9038 32.0109 30.8213 31.8117 30.8213 31.6041C30.8213 31.3964 30.9038 31.1973 31.0506 31.0504C31.1975 30.9036 31.3966 30.8211 31.6043 30.8211C31.8119 30.8211 32.0111 30.9036 32.1579 31.0504C32.3048 31.1973 32.3872 31.3964 32.3872 31.6041Z" fill="#2C3E50"/>
<path d="M32.959 30.75C33.0922 30.9208 33.1794 31.2625 33.1794 31.6042C33.1794 31.775 33.0922 32.1167 32.959 32.2875H33.1794H33.8149C33.9037 32.1167 33.9618 31.775 33.9618 31.6042C33.9618 31.2625 33.9037 30.9208 33.8149 30.75H33.1794H32.959Z" fill="#95A5A6"/>
<path d="M10.2498 1.70834C9.30632 1.70834 8.5415 2.47316 8.5415 3.41668V8.54168C8.5415 9.48519 9.30632 10.25 10.2498 10.25C11.1934 10.25 11.9582 9.48519 11.9582 8.54168V3.41668C11.9582 2.47316 11.1934 1.70834 10.2498 1.70834ZM30.7498 1.70834C29.8068 1.70834 29.0415 2.47316 29.0415 3.41668V8.54168C29.0415 9.48519 29.8068 10.25 30.7498 10.25C31.6928 10.25 32.4582 9.48519 32.4582 8.54168V3.41668C32.4582 2.47316 31.6928 1.70834 30.7498 1.70834Z" fill="#95A5A6"/>
<path d="M10.2498 1.70834C9.30632 1.70834 8.5415 2.39168 8.5415 3.41668V6.83334H11.9582V3.41668C11.9582 2.39168 11.1934 1.70834 10.2498 1.70834ZM30.7498 1.70834C29.8068 1.70834 29.0415 2.39168 29.0415 3.41668V6.83334H32.4582V3.41668C32.4582 2.39168 31.6928 1.70834 30.7498 1.70834Z" fill="#BDC3C7"/>
</g>
<defs>
<clipPath id="clip0_79_578">
<rect width="41" height="41" fill="white"/>
</clipPath>
</defs>
</svg>
