<svg width="46" height="46" viewBox="0 0 46 46" fill="none" xmlns="http://www.w3.org/2000/svg">
<g clip-path="url(#clip0_221_2)">
<path d="M45.0902 45.09C44.6186 45.5553 43.9828 45.8162 43.3202 45.8162C42.6577 45.8162 42.0218 45.5553 41.5502 45.09L28.9102 32.45L27.1402 30.68C26.9074 30.4478 26.7227 30.1719 26.5967 29.8682C26.4706 29.5644 26.4058 29.2388 26.4058 28.91C26.4058 28.5812 26.4706 28.2555 26.5967 27.9518C26.7227 27.6481 26.9074 27.3722 27.1402 27.14C27.3725 26.9072 27.6483 26.7225 27.9521 26.5964C28.2558 26.4704 28.5814 26.4055 28.9102 26.4055C29.2391 26.4055 29.5647 26.4704 29.8684 26.5964C30.1721 26.7225 30.448 26.9072 30.6802 27.14L32.4502 28.91L45.0902 41.55C45.5556 42.0216 45.8165 42.6575 45.8165 43.32C45.8165 43.9825 45.5556 44.6184 45.0902 45.09Z" fill="#97F500"/>
<path d="M45.0902 0.729971C44.6186 0.264622 43.9828 0.00371001 43.3202 0.00371001C42.6577 0.00371001 42.0218 0.264622 41.5502 0.729971L22.9102 19.37L4.27023 0.729971C3.79991 0.262207 3.16355 -0.000366211 2.50023 -0.000366211C1.8369 -0.000366211 1.20055 0.262207 0.730228 0.729971C0.264879 1.20156 0.00396743 1.83744 0.00396743 2.49997C0.00396743 3.1625 0.264879 3.79838 0.730228 4.26997L19.3702 22.91L0.730228 41.55C0.260795 42.0194 -0.00292969 42.6561 -0.00292969 43.32C-0.00292969 43.9838 0.260795 44.6205 0.730228 45.09C1.19966 45.5594 1.83635 45.8231 2.50023 45.8231C3.16411 45.8231 3.8008 45.5594 4.27023 45.09L45.0902 4.26997C45.558 3.79965 45.8206 3.1633 45.8206 2.49997C45.8206 1.83664 45.558 1.20029 45.0902 0.729971Z" fill="white"/>
</g>
<defs>
<clipPath id="clip0_221_2">
<rect width="45.82" height="45.82" fill="white"/>
</clipPath>
</defs>
</svg>
