<svg width="396" height="163" viewBox="0 0 396 163" fill="none" xmlns="http://www.w3.org/2000/svg">
<g clip-path="url(#clip0_76_202)">
<path d="M197.572 0.428938C200.192 -0.471162 203.055 0.28025 205.456 1.45437C207.134 2.52537 208.812 3.60777 210.691 4.30848C210.835 4.57623 211.134 5.10604 211.277 5.36809C211.203 5.54469 211.059 5.90929 210.984 6.08589C212.323 9.10522 213.179 12.6828 211.881 15.8554C210.996 16.9264 209.456 17.0922 208.209 17.5069C208.203 19.0394 208.45 20.5553 208.582 22.0763C211.249 22.5036 213.506 20.6635 216.143 20.8458C216.5 19.3817 216.781 17.8937 217.254 16.4587C217.799 17.4101 217.822 18.5044 217.828 19.5754C218.518 19.7691 219.219 19.9457 219.924 20.1161C219.931 20.3787 219.937 20.9028 219.937 21.1648C231.498 21.2332 243.054 21.113 254.616 21.2275C254.588 21.6194 254.531 22.4062 254.508 22.7998C254.807 22.7998 255.416 22.8055 255.72 22.8055C255.708 20.7211 255.72 18.6297 255.714 16.5453C256.007 16.5333 256.582 16.5162 256.869 16.5105C256.876 18.1512 256.881 19.7919 256.898 21.4332C257.15 21.7408 257.656 22.3555 257.91 22.6631C258.1 22.4404 258.478 22.0028 258.668 21.7801C259.547 22.5953 259.047 23.7119 259.008 24.7134C262.243 24.6786 265.512 24.8951 268.736 24.6331C268.978 24.4565 269.46 24.109 269.702 23.9329C270.145 24.1033 270.593 24.2747 271.035 24.4513C272.489 24.416 273.948 24.4115 275.408 24.4058C275.378 25.1521 275.355 25.8978 275.326 26.6446C273.447 26.6156 271.563 26.5763 269.712 26.8947C268.517 25.8756 266.914 26.1991 265.471 26.1604C263.253 26.2629 260.965 25.8756 258.817 26.5757C257.54 26.9289 256.139 26.844 255.013 26.1256C254.742 26.7922 255.156 28.2847 254.023 28.2272C249.564 28.2847 245.111 28.1879 240.657 28.2563C240.048 28.5753 239.433 28.8772 238.825 29.1729C238.181 31.0756 236.337 32.3454 234.767 33.5076C234.572 36.4301 235.738 39.1589 236.192 41.9953C235.313 42.2454 234.428 42.5029 233.56 42.7877C232.313 45.7045 233.077 49.686 230.193 51.7209C227.98 52.9965 226.516 55.7708 223.533 55.3327C225.05 56.586 223.119 56.193 223.32 55.1903C217.924 54.7175 213.379 51.5785 208.69 49.1864C208.471 50.4961 208.127 51.7842 207.77 53.066C209.552 53.4021 211.023 54.701 211.339 56.5126C211.908 60.461 210.77 64.381 210.787 68.3397C210.913 70.6641 209.908 72.7941 208.655 74.6911C207.558 75.9217 205.828 74.6564 204.512 74.4747C204.213 75.05 203.92 75.626 203.633 76.2065C204.006 77.7555 204.167 79.3677 204.69 80.883C207.627 84.1017 210.299 87.5888 212.35 91.4341C214.462 95.7889 216.344 100.25 217.988 104.798C218.148 105.682 218.987 105.999 219.724 106.319C219.822 107.231 219.919 108.141 220.011 109.065C220.299 109.481 220.592 109.896 220.89 110.317C221.069 115.935 220.373 121.529 219.493 127.072C218.948 129.573 220.424 132.017 219.826 134.535C219.895 135.824 219 136.797 218.579 137.937C218.499 140.597 218.367 143.291 218.661 145.947C218.867 147.895 220.528 149.148 221.655 150.601C222.884 151.895 223.913 153.632 225.775 154.093C227.528 154.611 229.2 155.363 230.744 156.35C231.216 157.505 231.129 158.731 230.905 159.932C227.538 160.548 224.102 160.24 220.7 160.292C218.078 160.428 215.741 159.033 213.194 158.742C210.728 158.68 207.723 159.893 205.828 157.705C206.631 154.67 206.696 151.41 208.166 148.578C208.637 145.372 207.741 142.118 207.93 138.882C207.65 138.649 207.085 138.182 206.804 137.947C207.006 135.834 205.954 133.954 205.603 131.932C205.374 128.979 205.103 126.029 204.758 123.09C204.488 121.66 205.235 120.35 206.252 119.399C206.344 117.747 206.569 116.111 206.729 114.471C206.482 113.405 205.626 112.614 205.074 111.702C203.229 112.473 200.741 112.107 199.644 110.317C197.041 106.478 194.443 102.639 191.811 98.8212C190.777 98.7534 189.685 98.8611 188.72 98.4509C187.606 97.3178 187.024 95.8082 186.313 94.4295C185.295 95.5632 185.369 97.3002 184.164 98.3319C181.612 100.759 180.934 104.326 179.601 107.435C178.579 109.452 179.154 111.884 178.015 113.85C177.406 114.909 175.877 115.12 175.475 116.329C174.947 117.632 174.326 118.983 173.09 119.776C171.752 120.646 171.396 122.3 170.799 123.666C170.253 124.925 171.063 126.246 170.873 127.54C170.023 131.648 167.385 135.083 166.276 139.105C165.771 140.917 165.046 142.956 162.92 143.343C160.501 147.627 159.168 152.869 160.536 157.692C161.375 159.208 161.329 160.911 161.07 162.58C157.226 162.877 153.284 163.389 149.509 162.324C148.624 160.586 148.75 158.541 148.934 156.663C150.1 151.723 151.646 146.869 152.594 141.879C151.41 140.837 151.687 139.242 151.709 137.846C151.669 135.242 153.456 133.157 154.697 131.021C155.163 128.828 154.945 126.471 156.088 124.458C157.433 121.94 158.57 119.218 160.645 117.183C161.041 115.389 162.376 114.033 162.915 112.306C163.489 110.779 162.484 109.229 162.686 107.669C163.18 102.934 164.048 98.2458 164.801 93.546C163.376 92.3667 163.835 90.493 163.381 88.903C163.605 88.2764 163.887 87.6788 164.226 87.0971C163.87 86.7724 163.52 86.442 163.163 86.1179C163.508 84.447 163.41 81.4561 165.996 81.999C166.157 76.4674 164.22 71.1124 164.87 65.5745C165.214 65.9727 165.553 66.3778 165.898 66.7822L165.714 64.908C166.795 64.3383 167.944 63.8996 169.151 63.6775C167.185 63.4217 165.272 62.926 163.346 62.4811C162.88 61.2671 163.14 59.9745 163.311 58.7326C164.058 54.5397 164.334 50.2899 164.489 46.0401C166.667 45.2892 169.069 45.9267 171.195 44.9235C170.536 39.6083 170.369 34.0602 172.276 28.961C173.81 24.6194 176.741 20.4322 181.315 18.906C183.475 18.3939 186.193 17.818 187.721 19.8973C188.14 19.5156 188.56 19.1225 188.979 18.7408C185.492 11.8739 189.658 1.84175 197.572 0.428938ZM225.482 30.212C224.562 30.7703 223.66 31.4089 224.627 32.4229C224.156 32.7015 223.683 32.9698 223.206 33.2256C222.459 33.7953 220.781 34.1194 220.977 35.2713C221.816 36.6073 222.539 38.0117 223.138 39.4693C224.97 37.9773 226.43 35.9709 227.418 33.8471C227.625 33.6363 228.045 33.2148 228.252 33.0091C228.16 32.035 227.941 31.083 227.556 30.1835C226.867 30.1955 226.171 30.2063 225.482 30.212Z" fill="white"/>
<path d="M242.342 81.21C244.974 77.9178 249.226 76.0943 253.443 76.1626C266.275 76.1746 279.113 76.1569 291.944 76.1683C298.203 76.2994 304.305 81.1479 305.03 87.4492C287.267 87.3905 269.51 87.5005 251.754 87.3905C251.737 99.1721 251.714 110.959 251.754 122.746C265.385 122.724 279.014 122.701 292.646 122.758C292.594 118.536 292.662 114.315 292.606 110.094C285.866 110.132 279.125 110.145 272.384 110.094C266.977 109.888 262.955 105.257 261.737 100.324C276.23 100.273 290.716 100.267 305.208 100.33C305.146 107.548 305.243 114.772 305.156 121.99C304.984 128.068 299.709 133.418 293.663 134.028C279.682 134.028 265.695 134.022 251.714 134.022C247.536 133.992 243.841 131.377 241.485 128.114C239.876 125.806 239.514 122.941 239.285 120.223C239.262 110.538 239.296 100.848 239.272 91.1635C239.325 87.6531 239.952 83.9451 242.342 81.21ZM327.119 76.5608C328.562 76.1735 330.067 76.1455 331.556 76.1626C343.417 76.198 355.283 76.1233 367.144 76.1911C373.867 76.476 379.774 82.2309 380.033 88.9178C380.045 99.7253 380.045 110.537 380.033 121.351C379.912 127.976 373.994 134.151 367.208 134.038C354.164 133.981 341.119 134.078 328.074 133.992C321.569 133.275 316.575 127.117 316.529 120.741C316.437 110.885 316.541 101.018 316.478 91.1635C316.426 88.2581 316.955 85.273 318.506 82.7664C320.327 79.6155 323.591 77.4102 327.119 76.5608ZM329.165 87.0783C329.188 99.2354 329.113 111.398 329.2 123.555C341.939 123.589 354.686 123.549 367.425 123.571C367.465 111.403 367.431 99.2342 367.442 87.0595C354.685 87.055 341.922 87.0328 329.165 87.0783ZM0.0202716 89.9723C0.290929 83.3811 5.85865 77.1881 12.6337 76.9317C25.2925 76.9197 37.9577 76.9197 50.6176 76.9374C57.4559 76.8696 63.1517 82.9937 63.6678 89.5622C62.7541 89.6368 61.8404 89.6926 60.9267 89.7046C45.8538 89.6881 30.7809 89.7103 15.7132 89.6926C15.7069 100.312 15.6506 110.93 15.7419 121.549C31.7406 121.526 47.7329 121.515 63.731 121.556C63.277 128.362 57.4955 134.402 50.5263 134.67C39.0564 134.83 27.5865 134.675 16.116 134.744C13.2601 134.841 10.3179 134.487 7.74405 133.194C3.30781 130.945 0.169679 126.358 0.0156745 121.379C0.00303231 110.908 -0.014207 100.443 0.0202716 89.9723ZM75.8502 84.811C77.9592 80.2473 82.7862 76.8582 87.924 76.9203C100.566 76.9323 113.214 76.9203 125.863 76.926C132.465 76.9659 138.28 82.6963 138.746 89.1634C122.069 89.3969 105.382 89.197 88.7004 89.2602C88.6251 92.5872 88.6602 95.9141 88.6544 99.2462C101.055 99.2855 113.462 99.2576 125.863 99.2576C129.54 99.4 133.402 100.568 135.907 103.388C138.722 105.884 139.912 109.683 140.004 113.341C140.067 116.992 140.067 120.662 139.469 124.278C138.101 130.135 132.453 134.499 126.425 134.687C114.37 134.8 102.307 134.698 90.2514 134.744C87.4074 134.801 84.4653 134.396 81.942 133.023C77.9425 130.955 75.0693 126.795 74.6734 122.33C91.6483 122.411 108.629 122.381 125.604 122.342C125.644 118.797 125.621 115.254 125.621 111.711C113.06 111.626 100.492 111.699 87.924 111.676C80.7014 111.734 74.3113 105.153 74.5056 98.0157C74.7584 93.6177 73.7361 88.8956 75.8502 84.811ZM383.957 78.1058C385.555 78.0659 387.17 78.0033 388.761 78.2425C388.02 78.4305 387.266 78.5274 386.509 78.5388C386.411 80.2541 386.4 81.9688 386.423 83.6825C386.256 83.6825 385.929 83.6825 385.767 83.6881C385.779 81.9278 385.796 80.1675 385.773 78.4129C385.325 78.4482 384.434 78.5274 383.992 78.561L383.957 78.1058ZM389.657 78.042C389.997 78.0597 390.686 78.0939 391.032 78.111C391.52 79.6542 392.095 81.1696 392.807 82.6337C393.474 81.1582 393.911 79.5853 394.646 78.1508C394.968 78.1053 395.612 78.0084 395.932 77.9628C395.754 80.0593 396.484 82.3779 395.342 84.2863C395.135 82.4291 395.221 80.56 395.1 78.6972C394.226 80.4353 393.813 82.3887 392.67 83.9958C391.796 82.3443 391.423 80.4632 390.377 78.904C390.308 80.5674 390.342 82.2366 390.319 83.9046L389.704 83.8357C389.704 81.9056 389.675 79.9738 389.657 78.042Z" fill="white"/>
</g>
<defs>
<clipPath id="clip0_76_202">
<rect width="396" height="163" fill="white"/>
</clipPath>
</defs>
</svg>
