<svg width="72" height="72" viewBox="0 0 72 72" fill="none" xmlns="http://www.w3.org/2000/svg">
<path fill-rule="evenodd" clip-rule="evenodd" d="M8.64 0H63.36C68.1317 0 72 3.86826 72 8.64V63.36C72 68.1317 68.1317 72 63.36 72H8.64C3.86826 72 0 68.1317 0 63.36V8.64C0 3.86826 3.86826 0 8.64 0Z" fill="#050505"/>
<path d="M34.5033 7.34057C35.4223 7.02237 36.426 7.288 37.2682 7.70307C37.8567 8.08168 38.4451 8.46432 39.1041 8.71203C39.1545 8.80669 39.2593 8.99398 39.3097 9.08662C39.2835 9.14905 39.2331 9.27794 39.2069 9.34037C39.6764 10.4077 39.9767 11.6725 39.5213 12.794C39.2109 13.1726 38.6708 13.2312 38.2335 13.3779C38.2315 13.9196 38.3182 14.4555 38.3645 14.9932C39.2996 15.1442 40.0912 14.4938 41.0162 14.5582C41.1411 14.0406 41.2398 13.5146 41.4055 13.0073C41.5969 13.3436 41.6048 13.7305 41.607 14.1091C41.8489 14.1776 42.0947 14.24 42.3422 14.3002C42.3446 14.3931 42.3464 14.5783 42.3464 14.671C46.4011 14.6951 50.4535 14.6527 54.5084 14.6931C54.4983 14.8317 54.4785 15.1098 54.4705 15.249C54.5753 15.249 54.7889 15.251 54.8953 15.251C54.8913 14.5141 54.8953 13.7748 54.8933 13.0379C54.9961 13.0337 55.1976 13.0276 55.2983 13.0256C55.3008 13.6056 55.3026 14.1856 55.3086 14.7658C55.3971 14.8746 55.5744 15.0919 55.6635 15.2006C55.73 15.1219 55.8628 14.9672 55.9291 14.8885C56.2374 15.1767 56.0621 15.5714 56.0484 15.9254C57.183 15.9132 58.3293 15.9897 59.4602 15.897C59.5449 15.8346 59.7141 15.7118 59.7988 15.6495C59.9542 15.7098 60.1111 15.7704 60.2663 15.8328C60.7762 15.8203 61.288 15.8187 61.7999 15.8167C61.7894 16.0805 61.7814 16.3441 61.7713 16.6082C61.1123 16.5979 60.4513 16.584 59.8024 16.6966C59.3832 16.3363 58.821 16.4507 58.3152 16.437C57.5373 16.4732 56.7348 16.3363 55.9815 16.5838C55.5337 16.7087 55.0424 16.6786 54.6474 16.4247C54.5523 16.6603 54.6978 17.188 54.3004 17.1676C52.7366 17.188 51.1748 17.1537 49.613 17.1779C49.3993 17.2907 49.1837 17.3974 48.9705 17.5019C48.7448 18.1746 48.0979 18.6235 47.5473 19.0343C47.4788 20.0674 47.8879 21.0321 48.0471 22.0348C47.7388 22.1232 47.4284 22.2143 47.1241 22.315C46.6868 23.3461 46.9549 24.7536 45.9432 25.473C45.1673 25.9239 44.6539 26.9047 43.6075 26.7498C44.1396 27.1928 43.4625 27.0539 43.533 26.6994C41.6407 26.5323 40.0466 25.4226 38.4022 24.577C38.3256 25.04 38.2049 25.4953 38.0798 25.9485C38.7045 26.0673 39.2204 26.5264 39.3312 27.1669C39.5307 28.5627 39.1317 29.9485 39.1378 31.3479C39.1821 32.1696 38.8294 32.9226 38.3901 33.5932C38.0052 34.0282 37.3986 33.581 36.9371 33.5167C36.8321 33.7201 36.7295 33.9237 36.6288 34.1289C36.7598 34.6765 36.8162 35.2465 36.9996 35.7822C38.0294 36.92 38.9665 38.1527 39.6859 39.5121C40.4265 41.0516 41.0864 42.6285 41.663 44.2365C41.7193 44.5489 42.0135 44.6611 42.2718 44.7742C42.3061 45.0965 42.3404 45.4183 42.3726 45.7447C42.4734 45.8918 42.5762 46.0386 42.6809 46.1876C42.7434 48.1735 42.4996 50.151 42.1908 52.1105C41.9998 52.9948 42.5173 53.8586 42.3077 54.7487C42.3319 55.2045 42.0179 55.5486 41.8704 55.9514C41.8422 56.8919 41.7958 57.8443 41.899 58.7832C41.9712 59.4719 42.554 59.9148 42.949 60.4285C43.3802 60.8859 43.741 61.4999 44.3939 61.6629C45.0085 61.8461 45.595 62.112 46.1367 62.4606C46.3019 62.8692 46.2717 63.3026 46.1931 63.7271C45.0122 63.9446 43.8071 63.8361 42.614 63.8544C41.6947 63.9025 40.8749 63.4091 39.9817 63.3062C39.1172 63.2845 38.0632 63.7132 37.3986 62.9399C37.6803 61.8669 37.7029 60.7145 38.2184 59.7134C38.3836 58.5798 38.0697 57.4296 38.1358 56.2857C38.0374 56.2032 37.8395 56.038 37.7408 55.9551C37.8117 55.2081 37.4427 54.5433 37.3196 53.8286C37.2394 52.7848 37.1443 51.742 37.0234 50.7028C36.9286 50.1973 37.1906 49.7343 37.5473 49.398C37.5796 48.8139 37.6586 48.2357 37.7146 47.6559C37.6279 47.2791 37.3277 46.9994 37.1342 46.6772C36.4873 46.9495 35.6147 46.8204 35.2298 46.1876C34.3171 44.8304 33.406 43.4731 32.483 42.1235C32.1203 42.0996 31.7374 42.1376 31.3988 41.9926C31.0083 41.5921 30.8043 41.0584 30.5549 40.571C30.198 40.9718 30.224 41.5858 29.8012 41.9506C28.9064 42.8087 28.6686 44.0694 28.2011 45.1688C27.8427 45.8815 28.0443 46.7414 27.6449 47.4364C27.4312 47.8108 26.8952 47.8853 26.7541 48.3127C26.5687 48.7735 26.3511 49.251 25.9178 49.5313C25.4482 49.839 25.3235 50.4235 25.1141 50.9064C24.9227 51.3517 25.2068 51.8187 25.1403 52.276C24.8421 53.7283 23.9171 54.9425 23.5281 56.3645C23.3508 57.0049 23.0967 57.7259 22.351 57.8626C21.5026 59.3771 21.0353 61.2301 21.5149 62.9353C21.8091 63.471 21.793 64.0731 21.7023 64.6632C20.3543 64.7681 18.9717 64.9492 17.6479 64.5728C17.3375 63.9583 17.3818 63.2353 17.4463 62.5713C17.8552 60.8249 18.3975 59.1092 18.7298 57.3451C18.3147 56.9765 18.4116 56.4128 18.4195 55.9192C18.4056 54.9988 19.0321 54.2618 19.4674 53.5065C19.6309 52.7312 19.5543 51.898 19.9551 51.1865C20.4269 50.2964 20.8257 49.3339 21.5534 48.6148C21.6922 47.9804 22.1602 47.5013 22.3492 46.8905C22.5507 46.3507 22.1981 45.803 22.269 45.2513C22.4421 43.5774 22.7466 41.9201 23.0106 40.2587C22.511 39.8418 22.672 39.1794 22.5128 38.6173C22.5914 38.3958 22.6902 38.1845 22.8091 37.9789C22.6841 37.8641 22.5614 37.7473 22.4363 37.6327C22.5572 37.0421 22.5229 35.9848 23.4298 36.1767C23.4862 34.2212 22.8071 32.3281 23.0348 30.3704C23.1557 30.5112 23.2744 30.6543 23.3955 30.7973L23.331 30.1348C23.7099 29.9334 24.1129 29.7783 24.5361 29.6998C23.8469 29.6093 23.1759 29.4341 22.5004 29.2768C22.3371 28.8477 22.4282 28.3907 22.4883 27.9517C22.7502 26.4695 22.847 24.9671 22.9014 23.4647C23.6652 23.1993 24.5075 23.4246 25.2532 23.07C25.0218 21.191 24.9634 19.2297 25.632 17.427C26.1701 15.8922 27.1981 14.412 28.802 13.8725C29.5597 13.6914 30.5129 13.4878 31.0486 14.2229C31.1957 14.088 31.3428 13.949 31.4899 13.8141C30.2669 11.3865 31.7279 7.84001 34.5033 7.34057ZM44.2911 17.8693C43.9687 18.0666 43.6523 18.2924 43.9912 18.6509C43.826 18.7493 43.6603 18.8442 43.4931 18.9346C43.2311 19.136 42.6427 19.2506 42.7112 19.6578C43.0055 20.1301 43.2591 20.6266 43.4691 21.1419C44.1118 20.6144 44.6236 19.9051 44.9703 19.1543C45.0428 19.0798 45.1901 18.9308 45.2625 18.8581C45.2302 18.5137 45.1536 18.1772 45.0186 17.8592C44.7768 17.8634 44.5329 17.8673 44.2911 17.8693Z" fill="white"/>
</svg>
