<svg width="51" height="50" viewBox="0 0 51 50" fill="none" xmlns="http://www.w3.org/2000/svg">
<g clip-path="url(#clip0_86_587)">
<path d="M50.4797 0H1.0106C1.00259 0 0.996094 0.0064925 0.996094 0.0145014V49.4836C0.996094 49.4916 1.00259 49.4981 1.0106 49.4981H50.4797C50.4877 49.4981 50.4942 49.4916 50.4942 49.4836V0.0145014C50.4942 0.0064925 50.4877 0 50.4797 0Z" fill="#7289DA"/>
<path d="M34.4458 37.897L32.4156 35.4801C36.3793 34.4166 37.9261 31.7097 37.9261 31.7097C32.8989 36.4468 19.171 36.6402 13.8538 31.7097C13.8538 31.7097 15.2072 34.2233 19.2676 35.4801L17.0441 37.897C10.2768 37.8003 7.6665 33.2565 7.6665 33.2565C7.6665 23.2022 12.1136 15.1781 12.1136 15.1781C16.6574 11.9878 20.8144 11.9878 20.8144 11.9878L21.1045 12.3745C15.4973 13.9213 13.0804 16.4349 13.0804 16.4349C19.6543 11.9878 33.189 12.3745 38.5062 16.4349C38.6028 16.3382 35.3158 13.728 30.192 12.3745L30.6754 11.9878C30.6754 11.9878 34.8325 11.9878 39.3762 15.1781C39.3762 15.1781 43.8233 23.2022 43.8233 33.2565C43.8233 33.2565 41.2131 37.8003 34.4458 37.897Z" fill="white"/>
<path d="M19.9447 30.3562C21.7067 30.3562 23.135 28.8413 23.135 26.9725C23.135 25.1038 21.7067 23.5889 19.9447 23.5889C18.1827 23.5889 16.7544 25.1038 16.7544 26.9725C16.7544 28.8413 18.1827 30.3562 19.9447 30.3562Z" fill="#7289DA"/>
<path d="M31.1591 30.3562C32.921 30.3562 34.3494 28.8413 34.3494 26.9725C34.3494 25.1038 32.921 23.5889 31.1591 23.5889C29.3971 23.5889 27.9688 25.1038 27.9688 26.9725C27.9688 28.8413 29.3971 30.3562 31.1591 30.3562Z" fill="#7289DA"/>
</g>
<defs>
<clipPath id="clip0_86_587">
<rect x="0.996094" width="49.4981" height="49.4981" rx="7" fill="white"/>
</clipPath>
</defs>
</svg>
