<svg width="691" height="511" viewBox="0 0 691 511" fill="none" xmlns="http://www.w3.org/2000/svg">
<rect x="602.713" y="1" width="87.2874" height="22.8761" fill="#0C44AC" fill-opacity="0.3" stroke="#616161" stroke-width="2"/>
<rect x="389.266" y="322.389" width="87.2874" height="22.8761" transform="rotate(-180 389.266 322.389)" fill="#0C44AC" stroke="#616161" stroke-width="2"/>
<rect x="482.902" y="34.7603" width="87.2874" height="22.8761" fill="#0C44AC" fill-opacity="0.65" stroke="#616161" stroke-width="2"/>
<rect x="361.948" y="104.502" width="87.2874" height="22.8761" fill="#0C44AC" fill-opacity="0.7" stroke="#616161" stroke-width="2"/>
<rect x="363.724" y="382.582" width="87.2874" height="22.8761" fill="#0C44AC" fill-opacity="0.7" stroke="#616161" stroke-width="2"/>
<rect x="601.824" y="69.4092" width="87.2874" height="22.8761" fill="#0C44AC" fill-opacity="0.3" stroke="#616161" stroke-width="2"/>
<rect x="586.165" y="11.5496" width="15.5476" height="1.77686" fill="#C4C4C4"/>
<rect x="405.813" y="311.84" width="15.5476" height="1.77686" transform="rotate(-180 405.813 311.84)" fill="#C4C4C4"/>
<rect x="465.782" y="45.3101" width="15.5476" height="1.77686" fill="#C4C4C4"/>
<rect x="570.617" y="45.3101" width="15.5476" height="1.77686" fill="#C4C4C4"/>
<rect x="450.235" y="115.052" width="15.5476" height="1.77686" fill="#C4C4C4"/>
<rect x="452.012" y="393.131" width="15.5476" height="1.77686" fill="#C4C4C4"/>
<rect x="585.277" y="79.9587" width="15.5476" height="1.77686" fill="#C4C4C4"/>
<rect x="585.277" y="80.8472" width="69.2977" height="1.77686" transform="rotate(-90 585.277 80.8472)" fill="#C4C4C4"/>
<rect x="464.006" y="186.126" width="140.816" height="1.77686" transform="rotate(-90 464.006 186.126)" fill="#C4C4C4"/>
<rect x="404.036" y="381.582" width="253.203" height="1.77686" transform="rotate(-90 404.036 381.582)" fill="#C4C4C4"/>
<rect x="465.782" y="464.206" width="140.816" height="1.77686" transform="rotate(-90 465.782 464.206)" fill="#C4C4C4"/>
<rect x="602.713" y="140.04" width="87.2874" height="22.8761" fill="#0C44AC" fill-opacity="0.3" stroke="#616161" stroke-width="2"/>
<rect x="482.902" y="173.8" width="87.2874" height="22.8761" fill="#0C44AC" fill-opacity="0.65" stroke="#616161" stroke-width="2"/>
<rect x="601.824" y="208.449" width="87.2874" height="22.8761" fill="#0C44AC" fill-opacity="0.3" stroke="#616161" stroke-width="2"/>
<rect x="586.165" y="150.589" width="15.5476" height="1.77686" fill="#C4C4C4"/>
<rect x="465.783" y="184.35" width="15.5476" height="1.77686" fill="#C4C4C4"/>
<rect x="570.617" y="184.35" width="15.5476" height="1.77686" fill="#C4C4C4"/>
<rect x="585.277" y="218.999" width="15.5476" height="1.77686" fill="#C4C4C4"/>
<rect x="585.277" y="219.887" width="69.2977" height="1.77686" transform="rotate(-90 585.277 219.887)" fill="#C4C4C4"/>
<rect x="602.713" y="279.079" width="87.2874" height="22.8761" fill="#0C44AC" fill-opacity="0.3" stroke="#616161" stroke-width="2"/>
<rect x="482.902" y="312.84" width="87.2874" height="22.8761" fill="#0C44AC" fill-opacity="0.65" stroke="#616161" stroke-width="2"/>
<rect x="601.824" y="347.489" width="87.2874" height="22.8761" fill="#0C44AC" fill-opacity="0.3" stroke="#616161" stroke-width="2"/>
<rect x="586.165" y="289.629" width="15.5476" height="1.77686" fill="#C4C4C4"/>
<rect x="465.782" y="323.389" width="15.5476" height="1.77686" fill="#C4C4C4"/>
<rect x="570.617" y="323.389" width="15.5476" height="1.77686" fill="#C4C4C4"/>
<rect x="585.277" y="358.038" width="15.5476" height="1.77686" fill="#C4C4C4"/>
<rect x="585.277" y="358.927" width="69.2977" height="1.77686" transform="rotate(-90 585.277 358.927)" fill="#C4C4C4"/>
<rect x="602.713" y="418.119" width="87.2874" height="22.8761" fill="#0C44AC" fill-opacity="0.3" stroke="#616161" stroke-width="2"/>
<rect x="482.902" y="451.879" width="87.2874" height="22.8761" fill="#0C44AC" fill-opacity="0.65" stroke="#616161" stroke-width="2"/>
<rect x="601.824" y="486.528" width="87.2874" height="22.8761" fill="#0C44AC" fill-opacity="0.3" stroke="#616161" stroke-width="2"/>
<rect x="586.165" y="428.668" width="15.5476" height="1.77686" fill="#C4C4C4"/>
<rect x="465.783" y="462.429" width="15.5476" height="1.77686" fill="#C4C4C4"/>
<rect x="570.617" y="462.429" width="15.5476" height="1.77686" fill="#C4C4C4"/>
<rect x="585.277" y="497.078" width="15.5476" height="1.77686" fill="#C4C4C4"/>
<rect x="585.277" y="497.966" width="69.2977" height="1.77686" transform="rotate(-90 585.277 497.966)" fill="#C4C4C4"/>
<rect x="88.2875" y="509.404" width="87.2874" height="22.8761" transform="rotate(-180 88.2875 509.404)" fill="#ED0101" fill-opacity="0.3" stroke="#616161" stroke-width="2"/>
<rect x="301.734" y="188.015" width="87.2874" height="22.8761" fill="#ED0101" stroke="#616161" stroke-width="2"/>
<rect x="208.67" y="475.644" width="87.2874" height="22.8761" transform="rotate(-180 208.67 475.644)" fill="#ED0101" fill-opacity="0.65" stroke="#616161" stroke-width="2"/>
<rect x="329.053" y="405.902" width="87.2874" height="22.8761" transform="rotate(-180 329.053 405.902)" fill="#ED0101" fill-opacity="0.7" stroke="#616161" stroke-width="2"/>
<rect x="327.276" y="127.823" width="87.2874" height="22.8761" transform="rotate(-180 327.276 127.823)" fill="#ED0101" fill-opacity="0.7" stroke="#616161" stroke-width="2"/>
<rect x="89.1759" y="440.995" width="87.2874" height="22.8761" transform="rotate(-180 89.1759 440.995)" fill="#ED0101" fill-opacity="0.3" stroke="#616161" stroke-width="2"/>
<rect x="104.835" y="498.855" width="15.5476" height="1.77686" transform="rotate(-180 104.835 498.855)" fill="#C4C4C4"/>
<rect x="285.187" y="198.565" width="15.5476" height="1.77686" fill="#C4C4C4"/>
<rect x="225.218" y="465.094" width="15.5476" height="1.77686" transform="rotate(-180 225.218 465.094)" fill="#C4C4C4"/>
<rect x="120.383" y="465.094" width="15.5476" height="1.77686" transform="rotate(-180 120.383 465.094)" fill="#C4C4C4"/>
<rect x="240.765" y="395.352" width="15.5476" height="1.77686" transform="rotate(-180 240.765 395.352)" fill="#C4C4C4"/>
<rect x="238.988" y="117.273" width="15.5476" height="1.77686" transform="rotate(-180 238.988 117.273)" fill="#C4C4C4"/>
<rect x="105.723" y="430.445" width="15.5476" height="1.77686" transform="rotate(-180 105.723 430.445)" fill="#C4C4C4"/>
<rect x="105.723" y="429.557" width="69.2977" height="1.77686" transform="rotate(90 105.723 429.557)" fill="#C4C4C4"/>
<rect x="226.994" y="324.278" width="140.816" height="1.77686" transform="rotate(90 226.994 324.278)" fill="#C4C4C4"/>
<rect x="286.964" y="128.823" width="253.203" height="1.77686" transform="rotate(90 286.964 128.823)" fill="#C4C4C4"/>
<rect x="225.218" y="46.1987" width="140.816" height="1.77686" transform="rotate(90 225.218 46.1987)" fill="#C4C4C4"/>
<rect x="88.2875" y="370.365" width="87.2874" height="22.8761" transform="rotate(-180 88.2875 370.365)" fill="#ED0101" fill-opacity="0.3" stroke="#616161" stroke-width="2"/>
<rect x="208.67" y="336.604" width="87.2874" height="22.8761" transform="rotate(-180 208.67 336.604)" fill="#ED0101" fill-opacity="0.65" stroke="#616161" stroke-width="2"/>
<rect x="89.1759" y="301.956" width="87.2874" height="22.8761" transform="rotate(-180 89.1759 301.956)" fill="#ED0101" fill-opacity="0.3" stroke="#616161" stroke-width="2"/>
<rect x="104.835" y="359.815" width="15.5476" height="1.77686" transform="rotate(-180 104.835 359.815)" fill="#C4C4C4"/>
<rect x="225.218" y="326.055" width="15.5476" height="1.77686" transform="rotate(-180 225.218 326.055)" fill="#C4C4C4"/>
<rect x="120.383" y="326.055" width="15.5476" height="1.77686" transform="rotate(-180 120.383 326.055)" fill="#C4C4C4"/>
<rect x="105.723" y="291.406" width="15.5476" height="1.77686" transform="rotate(-180 105.723 291.406)" fill="#C4C4C4"/>
<rect x="105.723" y="290.518" width="69.2977" height="1.77686" transform="rotate(90 105.723 290.518)" fill="#C4C4C4"/>
<rect x="88.2875" y="231.325" width="87.2874" height="22.8761" transform="rotate(-180 88.2875 231.325)" fill="#ED0101" fill-opacity="0.3" stroke="#616161" stroke-width="2"/>
<rect x="208.67" y="197.565" width="87.2874" height="22.8761" transform="rotate(-180 208.67 197.565)" fill="#ED0101" fill-opacity="0.65" stroke="#616161" stroke-width="2"/>
<rect x="89.176" y="162.916" width="87.2874" height="22.8761" transform="rotate(-180 89.176 162.916)" fill="#ED0101" fill-opacity="0.3" stroke="#616161" stroke-width="2"/>
<rect x="104.835" y="220.776" width="15.5476" height="1.77686" transform="rotate(-180 104.835 220.776)" fill="#C4C4C4"/>
<rect x="225.218" y="187.015" width="15.5476" height="1.77686" transform="rotate(-180 225.218 187.015)" fill="#C4C4C4"/>
<rect x="120.383" y="187.015" width="15.5476" height="1.77686" transform="rotate(-180 120.383 187.015)" fill="#C4C4C4"/>
<rect x="105.724" y="152.366" width="15.5476" height="1.77686" transform="rotate(-180 105.724 152.366)" fill="#C4C4C4"/>
<rect x="105.724" y="151.478" width="69.2977" height="1.77686" transform="rotate(90 105.724 151.478)" fill="#C4C4C4"/>
<rect x="88.2875" y="92.2856" width="87.2874" height="22.8761" transform="rotate(-180 88.2875 92.2856)" fill="#ED0101" fill-opacity="0.3" stroke="#616161" stroke-width="2"/>
<rect x="208.67" y="58.5249" width="87.2874" height="22.8761" transform="rotate(-180 208.67 58.5249)" fill="#ED0101" fill-opacity="0.65" stroke="#616161" stroke-width="2"/>
<rect x="89.176" y="23.8762" width="87.2874" height="22.8761" transform="rotate(-180 89.176 23.8762)" fill="#ED0101" fill-opacity="0.3" stroke="#616161" stroke-width="2"/>
<rect x="104.835" y="81.7358" width="15.5476" height="1.77686" transform="rotate(-180 104.835 81.7358)" fill="#C4C4C4"/>
<rect x="225.218" y="47.9753" width="15.5476" height="1.77686" transform="rotate(-180 225.218 47.9753)" fill="#C4C4C4"/>
<rect x="120.383" y="47.9753" width="15.5476" height="1.77686" transform="rotate(-180 120.383 47.9753)" fill="#C4C4C4"/>
<rect x="105.724" y="13.3267" width="15.5476" height="1.77686" transform="rotate(-180 105.724 13.3267)" fill="#C4C4C4"/>
<rect x="105.724" y="12.438" width="69.2977" height="1.77686" transform="rotate(90 105.724 12.438)" fill="#C4C4C4"/>
<g clip-path="url(#clip0_28_422)">
<path d="M352.777 253.66V266.885L358.119 265.388L363.461 266.885V252.112L352.777 253.66Z" fill="#FF3838"/>
<path d="M352.777 253.66V266.885L358.119 265.388L363.461 266.885V252.112L352.777 253.66Z" fill="#0066FF"/>
<path d="M327.542 252.114V266.885L332.884 265.388L338.226 266.885V253.659L327.542 252.114Z" fill="#FF3838"/>
<path d="M357.56 255.119H354.271V252.189H357.56C361.754 252.189 365.166 248.844 365.166 244.733V238.043H358.509V235.114H368.154V244.733C368.154 250.46 363.401 255.119 357.56 255.119Z" fill="#FFD321"/>
<path d="M357.56 255.119H354.271V252.189H357.56C361.754 252.189 365.166 248.844 365.166 244.733V238.043H358.509V235.114H368.154V244.733C368.154 250.46 363.401 255.119 357.56 255.119Z" fill="#FFAF00"/>
<path d="M336.732 255.119H333.44C327.598 255.119 322.846 250.46 322.846 244.733V235.114H332.491V238.043H325.834V244.733C325.834 248.844 329.246 252.189 333.44 252.189H336.732V255.119H336.732Z" fill="#FFD321"/>
<path d="M330.999 229.619H360.003V238.043H330.999V229.619Z" fill="#FFD321"/>
<path d="M345.5 229.619H360.003V238.043H345.5V229.619Z" fill="#FFAF00"/>
<path d="M330.999 235.114V242.5C330.999 245.716 331.86 248.892 333.487 251.684C335.114 254.477 337.467 256.816 340.293 258.449L341.257 259.006V273.867H349.746V259.006L350.71 258.449C353.535 256.816 355.889 254.476 357.516 251.684C359.143 248.892 360.003 245.716 360.003 242.5V235.114H330.999Z" fill="#FFF16B"/>
<path d="M345.5 235.114V273.867H349.746V259.006L350.71 258.449C353.535 256.816 355.889 254.476 357.516 251.684C359.143 248.892 360.003 245.716 360.003 242.5V235.114H345.5Z" fill="#FFD321"/>
<path d="M350.463 271.913H340.539C337.616 271.913 335.237 274.245 335.237 277.111V279.619H355.765V277.111C355.765 274.245 353.387 271.913 350.463 271.913Z" fill="#FFD321"/>
<path d="M355.765 279.619V277.111C355.765 274.245 353.387 271.913 350.463 271.913H345.5V279.619H355.765Z" fill="#FFAF00"/>
<path d="M346.994 248.634V241.634H342.511V244.564H344.006V248.634H342.013V251.564H348.987V248.634H346.994Z" fill="#FFD321"/>
<path d="M348.987 251.564V248.634H346.994V241.634H345.5V251.564H348.987Z" fill="#FFAF00"/>
</g>
<defs>
<clipPath id="clip0_28_422">
<rect width="51" height="50" fill="white" transform="translate(320 229.619)"/>
</clipPath>
</defs>
</svg>
