<svg width="50" height="50" viewBox="0 0 50 50" fill="none" xmlns="http://www.w3.org/2000/svg">
<g clip-path="url(#clip0_86_599)">
<path d="M44.4964 0H5.99784C2.96039 0 0.498047 2.46234 0.498047 5.49979V43.9983C0.498047 47.0358 2.96039 49.4981 5.99784 49.4981H44.4964C47.5338 49.4981 49.9962 47.0358 49.9962 43.9983V5.49979C49.9962 2.46234 47.5338 0 44.4964 0Z" fill="#4460A0"/>
<path fill-rule="evenodd" clip-rule="evenodd" d="M42.0654 9.22391V15.6246L38.2665 15.6345C35.2887 15.6345 34.7149 17.0492 34.7149 19.1168V23.6972H41.8082L40.8881 30.8597H34.7149V49.498H27.316V30.8597H21.1221V23.6972H27.316V18.4144C27.316 12.2808 31.0546 8.93701 36.5352 8.93701C39.148 8.93701 41.4026 9.13487 42.0654 9.22391Z" fill="white"/>
</g>
<defs>
<clipPath id="clip0_86_599">
<rect width="49.4981" height="49.4981" fill="white" transform="translate(0.498047)"/>
</clipPath>
</defs>
</svg>
