<svg width="50" height="50" viewBox="0 0 50 50" fill="none" xmlns="http://www.w3.org/2000/svg">
<g clip-path="url(#clip0_86_592)">
<path d="M24.7467 49.1209C38.2236 49.1209 49.1487 38.1957 49.1487 24.7189C49.1487 11.242 38.2236 0.316895 24.7467 0.316895C11.2699 0.316895 0.344727 11.242 0.344727 24.7189C0.344727 38.1957 11.2699 49.1209 24.7467 49.1209Z" fill="url(#paint0_linear_86_592)"/>
<path d="M33.385 18.1156C34.4319 18.1156 35.2807 17.2669 35.2807 16.2199C35.2807 15.173 34.4319 14.3242 33.385 14.3242C32.338 14.3242 31.4893 15.173 31.4893 16.2199C31.4893 17.2669 32.338 18.1156 33.385 18.1156Z" fill="white"/>
<path d="M24.9571 16.7554C20.5661 16.7554 16.9937 20.3277 16.9937 24.7187C16.9937 29.1096 20.5661 32.682 24.9571 32.682C29.348 32.682 32.9202 29.1096 32.9202 24.7187C32.9202 20.3277 29.348 16.7554 24.9571 16.7554ZM24.9571 29.8197C22.1443 29.8197 19.8559 27.5315 19.8559 24.7187C19.8559 21.9059 22.1443 19.6177 24.9571 19.6177C27.7698 19.6177 30.058 21.9059 30.058 24.7187C30.058 27.5315 27.7698 29.8197 24.9571 29.8197Z" fill="white"/>
<path d="M31.2787 40.8865H18.3689C13.0132 40.8865 8.65625 36.5295 8.65625 31.1738V18.2635C8.65625 12.9077 13.0132 8.55078 18.3689 8.55078H31.2787C36.6344 8.55078 40.992 12.9077 40.992 18.2635V31.1738C40.992 36.5295 36.6344 40.8865 31.2787 40.8865ZM18.3689 11.5929C14.6905 11.5929 11.6983 14.585 11.6983 18.2635V31.1738C11.6983 34.8522 14.6905 37.8444 18.3689 37.8444H31.2787C34.9572 37.8444 37.9499 34.8522 37.9499 31.1738V18.2635C37.9499 14.585 34.9572 11.5929 31.2787 11.5929H18.3689V11.5929Z" fill="white"/>
</g>
<defs>
<linearGradient id="paint0_linear_86_592" x1="3.93843" y1="45.5272" x2="56.6736" y2="-7.20796" gradientUnits="userSpaceOnUse">
<stop offset="0.0011" stop-color="#FBE18A"/>
<stop offset="0.2094" stop-color="#FCBB45"/>
<stop offset="0.3765" stop-color="#F75274"/>
<stop offset="0.5238" stop-color="#D53692"/>
<stop offset="0.7394" stop-color="#8F39CE"/>
<stop offset="1" stop-color="#5B4FE9"/>
</linearGradient>
<clipPath id="clip0_86_592">
<rect width="49.4981" height="49.4981" fill="white"/>
</clipPath>
</defs>
</svg>
