<svg width="398" height="161" viewBox="0 0 398 161" fill="none" xmlns="http://www.w3.org/2000/svg">
<g filter="url(#filter0_d_76_181)">
<path d="M275.886 82.0937V146.729H261.573L230.653 104.728V146.729H216.94V88.1347L213.807 82.0937H231.536L262.173 124.676V82.0937H275.886Z" fill="#F4B63E"/>
</g>
<g filter="url(#filter1_d_76_181)">
<path d="M133.379 147.845C138.099 147.87 142.459 147.075 146.46 145.47C150.465 143.864 153.917 141.636 156.831 138.797C159.739 135.957 162.021 132.587 163.676 128.698C164.867 125.899 165.635 122.943 165.985 119.833C166.121 118.625 166.355 113.751 166.105 110.81H133.514L127.713 122.463H150.966C150.068 126.144 148.037 129.177 144.883 131.461C141.723 133.75 137.943 134.881 133.54 134.861C130.71 134.846 128.068 134.295 125.619 133.209C123.169 132.124 121.039 130.655 119.227 128.805C117.409 126.954 115.994 124.783 114.966 122.29C113.942 119.797 113.436 117.136 113.451 114.312C113.467 111.488 114 108.832 115.049 106.349C116.099 103.867 117.54 101.71 119.378 99.8751C121.211 98.0399 123.342 96.6124 125.77 95.5777C128.198 94.5478 130.825 94.0381 133.661 94.0483C137.499 94.0689 140.888 94.9148 143.838 96.587C146.789 98.2591 149.071 100.665 150.69 103.806L163.557 97.79C160.878 92.5596 156.919 88.456 151.682 85.479C146.444 82.507 140.491 81.0031 133.822 80.9674C129.102 80.9419 124.631 81.7985 120.412 83.5265C116.188 85.2545 112.511 87.6302 109.383 90.6585C106.255 93.6814 103.764 97.219 101.921 101.262C100.073 105.304 99.1431 109.632 99.1168 114.235C99.0909 118.839 99.968 123.177 101.738 127.24C103.514 131.303 105.932 134.861 108.997 137.915C112.062 140.968 115.686 143.385 119.859 145.154C124.026 146.922 128.538 147.819 133.379 147.845Z" fill="#F4B63E"/>
</g>
<g filter="url(#filter2_d_76_181)">
<path d="M26.4572 82.0896H9L12.2951 88.7724V140.056L9 146.734H49.0633L52.6978 134.087H26.4572V82.0896Z" fill="#F4B63E"/>
</g>
<g filter="url(#filter3_d_76_181)">
<path d="M57.5337 146.734H96.584V134.092H71.748V119.91H90.9496L94.4275 107.756H71.748V94.6809H96.584V82.0896H57.5337V146.734Z" fill="#F4B63E"/>
</g>
<g filter="url(#filter4_d_76_181)">
<path d="M171.064 146.734H210.114V134.092H185.278V119.91H204.485L207.957 107.756H185.278V94.6809H210.114V82.0896H171.064V146.734Z" fill="#F4B63E"/>
</g>
<g filter="url(#filter5_d_76_181)">
<path d="M196.079 71.8834C200.8 71.9088 205.161 71.1138 209.16 69.5077C213.166 67.902 216.617 65.6741 219.531 62.8346C222.44 59.9956 224.722 56.6258 226.378 52.7359C227.568 49.9375 228.336 46.9807 228.686 43.8711C228.821 42.6629 229.056 37.7895 228.806 34.848H196.215L190.414 46.4964H213.667C212.769 50.1772 210.738 53.21 207.583 55.4942C204.424 57.7828 200.643 58.9144 196.241 58.8943C193.411 58.8791 190.769 58.3283 188.319 57.2427C185.871 56.1566 183.74 54.6884 181.928 52.8382C180.111 50.9874 178.696 48.8159 177.666 46.3231C176.643 43.8303 176.136 41.1693 176.152 38.3451C176.168 35.5209 176.7 32.865 177.75 30.3824C178.8 27.8997 180.241 25.7434 182.079 23.9082C183.912 22.073 186.043 20.6456 188.471 19.6108C190.899 18.581 193.526 18.0713 196.361 18.0814C200.2 18.1018 203.589 18.9481 206.539 20.6201C209.49 22.2922 211.771 24.6984 213.39 27.8386L226.257 21.8232C223.579 16.5929 219.62 12.4892 214.383 9.51209C209.145 6.54008 203.192 5.03624 196.523 5.00055C191.803 4.97506 187.333 5.83149 183.113 7.55964C178.889 9.28778 175.212 11.6633 172.084 14.6914C168.956 17.7144 166.465 21.2523 164.622 25.2948C162.773 29.3373 161.844 33.6653 161.818 38.2686C161.792 42.8719 162.669 47.2101 164.439 51.2731C166.215 55.3361 168.632 58.8943 171.698 61.9476C174.763 65.0014 178.387 67.4177 182.559 69.1867C186.727 70.9656 191.233 71.8628 196.079 71.8834Z" fill="#F4B63E"/>
</g>
<g filter="url(#filter6_d_76_181)">
<path d="M26.4572 6.13126H9L12.2951 12.8144V64.0978L9 70.7762H49.0633L52.6978 58.1233H26.4572V6.13126Z" fill="#F4B63E"/>
</g>
<g filter="url(#filter7_d_76_181)">
<path d="M57.5337 70.7762H96.584V58.1283H71.748V43.9516H90.9496L94.4275 31.7985H71.748V18.7227H96.584V6.13126H57.5337V70.7762Z" fill="#F4B63E"/>
</g>
<g filter="url(#filter8_d_76_181)">
<path d="M293.058 70.7763H332.103V58.1283H307.272V43.9516H326.473L329.946 31.7986H307.272V18.7228H332.103V6.13132H293.058V70.7763Z" fill="#F4B63E"/>
</g>
<g filter="url(#filter9_d_76_181)">
<path d="M140.361 6.13132H120.167L124.439 14.3744L101.117 70.7813H115.645L120.595 58.1694H146.862L151.954 70.7813H166.763L140.361 6.13132ZM125.447 45.8073L133.974 24.0857L142.168 45.8073H125.447Z" fill="#F4B63E"/>
</g>
<g filter="url(#filter10_d_76_181)">
<path d="M369.204 23.9084V52.981H376.519V43.1524H384.071L385.898 36.7599H376.519V30.4947H387.246V23.9084H369.204Z" fill="#F4B63E"/>
</g>
<g filter="url(#filter11_d_76_181)">
<path d="M351.12 23.3307C342.598 23.3307 335.668 30.1107 335.668 38.4456C335.668 46.7804 342.598 53.5603 351.12 53.5603C359.642 53.5603 366.572 46.7804 366.572 38.4456C366.572 30.1107 359.637 23.3307 351.12 23.3307ZM351.12 46.546C346.561 46.546 342.853 42.9112 342.853 38.4456C342.853 33.9799 346.561 30.3452 351.12 30.3452C355.679 30.3452 359.386 33.9799 359.386 38.4456C359.386 42.9112 355.679 46.546 351.12 46.546Z" fill="#F4B63E"/>
</g>
<g filter="url(#filter12_d_76_181)">
<path d="M260.309 71.8976C256.153 71.8976 252.435 71.2656 249.161 70.0063C245.886 68.747 243.113 66.9476 240.847 64.6077C238.581 62.273 236.831 59.4438 235.604 56.12C234.377 52.8015 233.761 49.1106 233.761 45.0527V6.13126H248.121V44.3187C248.121 48.6874 249.161 52.1284 251.239 54.6518C253.317 57.1753 256.341 58.4345 260.309 58.4345C264.278 58.4345 267.302 57.1753 269.38 54.6518C271.458 52.1284 272.498 48.6874 272.498 44.3187V6.13126H286.858V45.0578C286.858 49.1157 286.242 52.8065 285.015 56.1249C283.788 59.4438 282.038 62.273 279.772 64.613C277.506 66.9525 274.733 68.747 271.458 70.0112C268.179 71.2656 264.466 71.8976 260.309 71.8976Z" fill="#F4B63E"/>
</g>
<g filter="url(#filter13_d_76_181)">
<path d="M370.222 108.399L361.281 106.721C357.261 105.967 355.047 103.765 355.047 100.517C355.047 96.0927 359.694 93.447 364.185 93.447C365.715 93.447 373.329 93.8344 374.895 101.246L387.214 95.374C385.397 90.1026 379.955 80.9623 364.096 80.9623C351.308 80.9623 340.9 90.1334 340.9 101.404C340.9 110.963 347.448 117.972 358.41 120.154L367.355 121.918C371.773 122.779 374.41 125.232 374.41 128.474C374.41 132.669 370.77 135.218 364.911 135.279C357.804 135.35 352.059 130.191 351.172 125.114L339.333 131.563C342.049 140.193 350.414 147.86 364.822 147.86C373.888 147.86 379.486 144.44 382.582 141.57C386.556 137.894 388.833 132.832 388.833 127.684C388.823 117.957 381.694 110.57 370.222 108.399Z" fill="#F4B63E"/>
</g>
<g filter="url(#filter14_d_76_181)">
<path d="M335.403 101.822C333.643 97.8917 331.241 94.4862 328.196 91.5959C325.147 88.7108 321.58 86.4369 317.497 84.775C313.408 83.1131 307.59 82.0784 304.483 82.0784H282.091V146.718H304.442C309.032 146.718 313.371 145.908 317.46 144.256C321.549 142.599 325.115 140.331 328.171 137.45C331.22 134.565 333.633 131.165 335.393 127.235C337.158 123.309 338.04 119.073 338.045 114.531C338.04 109.989 337.163 105.753 335.403 101.822ZM321.998 122.07C320.99 124.405 319.622 126.429 317.893 128.147C316.16 129.865 314.102 131.231 311.711 132.241C309.319 133.25 306.771 133.755 304.071 133.755H296.243V95.2665H304.097C306.802 95.2665 309.345 95.7763 311.737 96.7905C314.123 97.8051 316.181 99.1711 317.914 100.889C319.643 102.612 321.006 104.651 322.014 107.017C323.017 109.382 323.523 111.885 323.517 114.521C323.513 117.228 323.006 119.741 321.998 122.07Z" fill="#F4B63E"/>
</g>
<defs>
<filter id="filter0_d_76_181" x="204.807" y="77.0937" width="80.0791" height="82.635" filterUnits="userSpaceOnUse" color-interpolation-filters="sRGB">
<feFlood flood-opacity="0" result="BackgroundImageFix"/>
<feColorMatrix in="SourceAlpha" type="matrix" values="0 0 0 0 0 0 0 0 0 0 0 0 0 0 0 0 0 0 127 0" result="hardAlpha"/>
<feOffset dy="4"/>
<feGaussianBlur stdDeviation="4.5"/>
<feComposite in2="hardAlpha" operator="out"/>
<feColorMatrix type="matrix" values="0 0 0 0 0 0 0 0 0 0 0 0 0 0 0 0 0 0 0.65 0"/>
<feBlend mode="normal" in2="BackgroundImageFix" result="effect1_dropShadow_76_181"/>
<feBlend mode="normal" in="SourceGraphic" in2="effect1_dropShadow_76_181" result="shape"/>
</filter>
<filter id="filter1_d_76_181" x="90.1162" y="75.9668" width="85.0991" height="84.8787" filterUnits="userSpaceOnUse" color-interpolation-filters="sRGB">
<feFlood flood-opacity="0" result="BackgroundImageFix"/>
<feColorMatrix in="SourceAlpha" type="matrix" values="0 0 0 0 0 0 0 0 0 0 0 0 0 0 0 0 0 0 127 0" result="hardAlpha"/>
<feOffset dy="4"/>
<feGaussianBlur stdDeviation="4.5"/>
<feComposite in2="hardAlpha" operator="out"/>
<feColorMatrix type="matrix" values="0 0 0 0 0 0 0 0 0 0 0 0 0 0 0 0 0 0 0.65 0"/>
<feBlend mode="normal" in2="BackgroundImageFix" result="effect1_dropShadow_76_181"/>
<feBlend mode="normal" in="SourceGraphic" in2="effect1_dropShadow_76_181" result="shape"/>
</filter>
<filter id="filter2_d_76_181" x="0" y="77.0896" width="61.6978" height="82.6447" filterUnits="userSpaceOnUse" color-interpolation-filters="sRGB">
<feFlood flood-opacity="0" result="BackgroundImageFix"/>
<feColorMatrix in="SourceAlpha" type="matrix" values="0 0 0 0 0 0 0 0 0 0 0 0 0 0 0 0 0 0 127 0" result="hardAlpha"/>
<feOffset dy="4"/>
<feGaussianBlur stdDeviation="4.5"/>
<feComposite in2="hardAlpha" operator="out"/>
<feColorMatrix type="matrix" values="0 0 0 0 0 0 0 0 0 0 0 0 0 0 0 0 0 0 0.65 0"/>
<feBlend mode="normal" in2="BackgroundImageFix" result="effect1_dropShadow_76_181"/>
<feBlend mode="normal" in="SourceGraphic" in2="effect1_dropShadow_76_181" result="shape"/>
</filter>
<filter id="filter3_d_76_181" x="48.5337" y="77.0896" width="57.0503" height="82.6447" filterUnits="userSpaceOnUse" color-interpolation-filters="sRGB">
<feFlood flood-opacity="0" result="BackgroundImageFix"/>
<feColorMatrix in="SourceAlpha" type="matrix" values="0 0 0 0 0 0 0 0 0 0 0 0 0 0 0 0 0 0 127 0" result="hardAlpha"/>
<feOffset dy="4"/>
<feGaussianBlur stdDeviation="4.5"/>
<feComposite in2="hardAlpha" operator="out"/>
<feColorMatrix type="matrix" values="0 0 0 0 0 0 0 0 0 0 0 0 0 0 0 0 0 0 0.65 0"/>
<feBlend mode="normal" in2="BackgroundImageFix" result="effect1_dropShadow_76_181"/>
<feBlend mode="normal" in="SourceGraphic" in2="effect1_dropShadow_76_181" result="shape"/>
</filter>
<filter id="filter4_d_76_181" x="162.064" y="77.0896" width="57.0498" height="82.6447" filterUnits="userSpaceOnUse" color-interpolation-filters="sRGB">
<feFlood flood-opacity="0" result="BackgroundImageFix"/>
<feColorMatrix in="SourceAlpha" type="matrix" values="0 0 0 0 0 0 0 0 0 0 0 0 0 0 0 0 0 0 127 0" result="hardAlpha"/>
<feOffset dy="4"/>
<feGaussianBlur stdDeviation="4.5"/>
<feComposite in2="hardAlpha" operator="out"/>
<feColorMatrix type="matrix" values="0 0 0 0 0 0 0 0 0 0 0 0 0 0 0 0 0 0 0.65 0"/>
<feBlend mode="normal" in2="BackgroundImageFix" result="effect1_dropShadow_76_181"/>
<feBlend mode="normal" in="SourceGraphic" in2="effect1_dropShadow_76_181" result="shape"/>
</filter>
<filter id="filter5_d_76_181" x="152.817" y="0" width="85.0991" height="84.884" filterUnits="userSpaceOnUse" color-interpolation-filters="sRGB">
<feFlood flood-opacity="0" result="BackgroundImageFix"/>
<feColorMatrix in="SourceAlpha" type="matrix" values="0 0 0 0 0 0 0 0 0 0 0 0 0 0 0 0 0 0 127 0" result="hardAlpha"/>
<feOffset dy="4"/>
<feGaussianBlur stdDeviation="4.5"/>
<feComposite in2="hardAlpha" operator="out"/>
<feColorMatrix type="matrix" values="0 0 0 0 0 0 0 0 0 0 0 0 0 0 0 0 0 0 0.65 0"/>
<feBlend mode="normal" in2="BackgroundImageFix" result="effect1_dropShadow_76_181"/>
<feBlend mode="normal" in="SourceGraphic" in2="effect1_dropShadow_76_181" result="shape"/>
</filter>
<filter id="filter6_d_76_181" x="0" y="1.13126" width="61.6978" height="82.645" filterUnits="userSpaceOnUse" color-interpolation-filters="sRGB">
<feFlood flood-opacity="0" result="BackgroundImageFix"/>
<feColorMatrix in="SourceAlpha" type="matrix" values="0 0 0 0 0 0 0 0 0 0 0 0 0 0 0 0 0 0 127 0" result="hardAlpha"/>
<feOffset dy="4"/>
<feGaussianBlur stdDeviation="4.5"/>
<feComposite in2="hardAlpha" operator="out"/>
<feColorMatrix type="matrix" values="0 0 0 0 0 0 0 0 0 0 0 0 0 0 0 0 0 0 0.65 0"/>
<feBlend mode="normal" in2="BackgroundImageFix" result="effect1_dropShadow_76_181"/>
<feBlend mode="normal" in="SourceGraphic" in2="effect1_dropShadow_76_181" result="shape"/>
</filter>
<filter id="filter7_d_76_181" x="48.5337" y="1.13126" width="57.0503" height="82.645" filterUnits="userSpaceOnUse" color-interpolation-filters="sRGB">
<feFlood flood-opacity="0" result="BackgroundImageFix"/>
<feColorMatrix in="SourceAlpha" type="matrix" values="0 0 0 0 0 0 0 0 0 0 0 0 0 0 0 0 0 0 127 0" result="hardAlpha"/>
<feOffset dy="4"/>
<feGaussianBlur stdDeviation="4.5"/>
<feComposite in2="hardAlpha" operator="out"/>
<feColorMatrix type="matrix" values="0 0 0 0 0 0 0 0 0 0 0 0 0 0 0 0 0 0 0.65 0"/>
<feBlend mode="normal" in2="BackgroundImageFix" result="effect1_dropShadow_76_181"/>
<feBlend mode="normal" in="SourceGraphic" in2="effect1_dropShadow_76_181" result="shape"/>
</filter>
<filter id="filter8_d_76_181" x="284.058" y="1.13132" width="57.0454" height="82.645" filterUnits="userSpaceOnUse" color-interpolation-filters="sRGB">
<feFlood flood-opacity="0" result="BackgroundImageFix"/>
<feColorMatrix in="SourceAlpha" type="matrix" values="0 0 0 0 0 0 0 0 0 0 0 0 0 0 0 0 0 0 127 0" result="hardAlpha"/>
<feOffset dy="4"/>
<feGaussianBlur stdDeviation="4.5"/>
<feComposite in2="hardAlpha" operator="out"/>
<feColorMatrix type="matrix" values="0 0 0 0 0 0 0 0 0 0 0 0 0 0 0 0 0 0 0.65 0"/>
<feBlend mode="normal" in2="BackgroundImageFix" result="effect1_dropShadow_76_181"/>
<feBlend mode="normal" in="SourceGraphic" in2="effect1_dropShadow_76_181" result="shape"/>
</filter>
<filter id="filter9_d_76_181" x="92.1172" y="1.13132" width="83.646" height="82.6499" filterUnits="userSpaceOnUse" color-interpolation-filters="sRGB">
<feFlood flood-opacity="0" result="BackgroundImageFix"/>
<feColorMatrix in="SourceAlpha" type="matrix" values="0 0 0 0 0 0 0 0 0 0 0 0 0 0 0 0 0 0 127 0" result="hardAlpha"/>
<feOffset dy="4"/>
<feGaussianBlur stdDeviation="4.5"/>
<feComposite in2="hardAlpha" operator="out"/>
<feColorMatrix type="matrix" values="0 0 0 0 0 0 0 0 0 0 0 0 0 0 0 0 0 0 0.65 0"/>
<feBlend mode="normal" in2="BackgroundImageFix" result="effect1_dropShadow_76_181"/>
<feBlend mode="normal" in="SourceGraphic" in2="effect1_dropShadow_76_181" result="shape"/>
</filter>
<filter id="filter10_d_76_181" x="360.204" y="18.9084" width="36.042" height="47.0726" filterUnits="userSpaceOnUse" color-interpolation-filters="sRGB">
<feFlood flood-opacity="0" result="BackgroundImageFix"/>
<feColorMatrix in="SourceAlpha" type="matrix" values="0 0 0 0 0 0 0 0 0 0 0 0 0 0 0 0 0 0 127 0" result="hardAlpha"/>
<feOffset dy="4"/>
<feGaussianBlur stdDeviation="4.5"/>
<feComposite in2="hardAlpha" operator="out"/>
<feColorMatrix type="matrix" values="0 0 0 0 0 0 0 0 0 0 0 0 0 0 0 0 0 0 0.65 0"/>
<feBlend mode="normal" in2="BackgroundImageFix" result="effect1_dropShadow_76_181"/>
<feBlend mode="normal" in="SourceGraphic" in2="effect1_dropShadow_76_181" result="shape"/>
</filter>
<filter id="filter11_d_76_181" x="326.668" y="18.3307" width="48.9038" height="48.2297" filterUnits="userSpaceOnUse" color-interpolation-filters="sRGB">
<feFlood flood-opacity="0" result="BackgroundImageFix"/>
<feColorMatrix in="SourceAlpha" type="matrix" values="0 0 0 0 0 0 0 0 0 0 0 0 0 0 0 0 0 0 127 0" result="hardAlpha"/>
<feOffset dy="4"/>
<feGaussianBlur stdDeviation="4.5"/>
<feComposite in2="hardAlpha" operator="out"/>
<feColorMatrix type="matrix" values="0 0 0 0 0 0 0 0 0 0 0 0 0 0 0 0 0 0 0.65 0"/>
<feBlend mode="normal" in2="BackgroundImageFix" result="effect1_dropShadow_76_181"/>
<feBlend mode="normal" in="SourceGraphic" in2="effect1_dropShadow_76_181" result="shape"/>
</filter>
<filter id="filter12_d_76_181" x="224.761" y="1.13126" width="71.0977" height="83.7664" filterUnits="userSpaceOnUse" color-interpolation-filters="sRGB">
<feFlood flood-opacity="0" result="BackgroundImageFix"/>
<feColorMatrix in="SourceAlpha" type="matrix" values="0 0 0 0 0 0 0 0 0 0 0 0 0 0 0 0 0 0 127 0" result="hardAlpha"/>
<feOffset dy="4"/>
<feGaussianBlur stdDeviation="4.5"/>
<feComposite in2="hardAlpha" operator="out"/>
<feColorMatrix type="matrix" values="0 0 0 0 0 0 0 0 0 0 0 0 0 0 0 0 0 0 0.65 0"/>
<feBlend mode="normal" in2="BackgroundImageFix" result="effect1_dropShadow_76_181"/>
<feBlend mode="normal" in="SourceGraphic" in2="effect1_dropShadow_76_181" result="shape"/>
</filter>
<filter id="filter13_d_76_181" x="330.333" y="75.9623" width="67.4995" height="84.8982" filterUnits="userSpaceOnUse" color-interpolation-filters="sRGB">
<feFlood flood-opacity="0" result="BackgroundImageFix"/>
<feColorMatrix in="SourceAlpha" type="matrix" values="0 0 0 0 0 0 0 0 0 0 0 0 0 0 0 0 0 0 127 0" result="hardAlpha"/>
<feOffset dy="4"/>
<feGaussianBlur stdDeviation="4.5"/>
<feComposite in2="hardAlpha" operator="out"/>
<feColorMatrix type="matrix" values="0 0 0 0 0 0 0 0 0 0 0 0 0 0 0 0 0 0 0.65 0"/>
<feBlend mode="normal" in2="BackgroundImageFix" result="effect1_dropShadow_76_181"/>
<feBlend mode="normal" in="SourceGraphic" in2="effect1_dropShadow_76_181" result="shape"/>
</filter>
<filter id="filter14_d_76_181" x="273.091" y="77.0784" width="73.9541" height="82.6399" filterUnits="userSpaceOnUse" color-interpolation-filters="sRGB">
<feFlood flood-opacity="0" result="BackgroundImageFix"/>
<feColorMatrix in="SourceAlpha" type="matrix" values="0 0 0 0 0 0 0 0 0 0 0 0 0 0 0 0 0 0 127 0" result="hardAlpha"/>
<feOffset dy="4"/>
<feGaussianBlur stdDeviation="4.5"/>
<feComposite in2="hardAlpha" operator="out"/>
<feColorMatrix type="matrix" values="0 0 0 0 0 0 0 0 0 0 0 0 0 0 0 0 0 0 0.65 0"/>
<feBlend mode="normal" in2="BackgroundImageFix" result="effect1_dropShadow_76_181"/>
<feBlend mode="normal" in="SourceGraphic" in2="effect1_dropShadow_76_181" result="shape"/>
</filter>
</defs>
</svg>
