<?xml version="1.0" standalone="no"?>
<!DOCTYPE svg PUBLIC "-//W3C//DTD SVG 20010904//EN"
 "http://www.w3.org/TR/2001/REC-SVG-20010904/DTD/svg10.dtd">
<svg version="1.0" xmlns="http://www.w3.org/2000/svg"
 width="1000.000000pt" height="500.000000pt" viewBox="0 0 1000.000000 500.000000"
 preserveAspectRatio="xMidYMid meet">
<metadata>
Created by potrace 1.16, written by Peter Selinger 2001-2019
</metadata>
<g transform="translate(0.000000,500.000000) scale(0.100000,-0.100000)"
fill="#000000" stroke="none">
<path d="M1820 4108 c-92 -27 -158 -37 -178 -24 -5 3 -86 -153 -181 -347 -95
-194 -207 -415 -250 -492 -43 -77 -129 -234 -191 -350 -128 -237 -244 -443
-335 -590 -79 -128 -191 -328 -242 -430 -77 -152 -124 -332 -126 -471 -1 -69
3 -89 27 -137 44 -91 106 -131 301 -192 66 -20 190 -70 275 -110 216 -102 282
-120 445 -120 261 0 461 68 900 305 142 77 243 124 285 135 138 35 264 117
306 197 17 32 11 48 -16 48 -10 0 -26 3 -35 6 -13 5 -9 11 19 31 61 40 60 99
0 128 -51 24 -135 30 -216 15 -76 -15 -78 -14 -113 44 -5 10 -28 21 -50 26
-33 7 -49 5 -95 -15 -38 -16 -84 -25 -145 -30 -128 -9 -225 -34 -425 -110
-271 -104 -401 -144 -485 -152 -41 -3 -75 -3 -75 2 0 16 208 377 455 790 436
729 659 1151 765 1447 l13 37 -57 69 c-100 123 -211 209 -349 272 -110 50
-121 51 -227 18z"/>
<path d="M4474 4130 c-17 -4 -35 -9 -40 -13 -30 -18 -167 -45 -188 -37 -23 8
-29 -4 -195 -343 -95 -194 -207 -415 -250 -492 -43 -77 -129 -234 -191 -350
-125 -233 -234 -424 -338 -596 -168 -277 -266 -463 -305 -581 -59 -177 -77
-354 -43 -432 44 -103 105 -145 301 -207 72 -23 200 -74 285 -114 214 -102
281 -120 445 -120 262 0 471 71 910 309 135 74 233 121 274 131 137 35 266
118 307 197 18 35 11 48 -25 48 -42 0 -44 11 -6 37 37 25 54 66 38 92 -32 51
-140 72 -255 51 -76 -15 -78 -14 -113 44 -5 10 -28 21 -50 26 -33 7 -49 5 -95
-15 -38 -16 -84 -25 -145 -30 -128 -9 -225 -34 -425 -110 -271 -104 -401 -144
-485 -152 -41 -3 -75 -3 -75 1 0 16 173 317 408 711 407 681 563 962 688 1235
72 158 134 308 134 325 0 22 -148 182 -215 233 -73 54 -224 134 -285 150 -19
4 -49 5 -66 2z"/>
<path d="M8945 4128 c-10 -6 -72 -17 -139 -24 -144 -16 -177 -25 -222 -59 -33
-25 -34 -25 -34 -6 0 26 2 26 -94 -4 -46 -15 -179 -40 -325 -60 -372 -53 -494
-80 -601 -135 -34 -17 -59 -23 -102 -21 -32 1 -108 -8 -168 -20 -103 -20 -113
-21 -148 -6 -20 9 -62 18 -94 20 l-56 3 -23 -48 c-13 -27 -26 -51 -29 -53 -3
-2 -107 -27 -230 -55 -303 -69 -1441 -357 -1490 -376 -73 -29 -88 -89 -46
-173 17 -33 35 -52 57 -61 46 -20 144 -94 229 -175 41 -39 93 -83 115 -98 l41
-27 124 15 c127 16 274 45 452 91 109 27 332 74 354 74 10 0 7 -16 -12 -57
-261 -571 -474 -1150 -558 -1513 -44 -192 -46 -172 29 -226 168 -119 343 -190
407 -163 26 11 78 65 78 82 0 15 62 137 70 137 4 0 6 -10 3 -21 -4 -16 -2 -20
8 -17 8 3 40 63 73 134 32 71 155 327 273 569 298 609 518 1066 589 1222 l59
131 63 16 c34 8 118 39 185 67 190 80 254 100 345 106 62 4 86 10 95 23 7 9
34 27 62 39 47 21 51 21 80 5 26 -14 46 -15 108 -9 56 5 77 11 77 21 0 24 72
62 112 59 28 -3 42 2 58 20 23 25 73 38 185 50 85 9 137 24 161 46 20 19 21
18 59 -1 45 -23 56 -24 123 -9 100 21 108 63 10 52 -53 -6 -55 -4 -32 32 15
23 20 24 73 19 31 -4 66 -13 78 -20 31 -19 33 -18 33 16 0 38 13 38 42 0 27
-37 61 -37 63 -2 2 26 20 42 47 42 9 0 23 3 32 6 35 13 12 22 -71 26 -92 5
-153 26 -153 53 0 19 -1 19 54 -5 35 -16 50 -18 66 -10 24 13 23 11 7 43 -10
19 -17 23 -28 16 -18 -11 -100 -11 -117 0 -10 6 4 17 47 40 68 35 91 38 125
16 22 -15 26 -14 62 10 21 14 48 28 61 31 13 4 22 11 20 18 -4 12 -34 12 -117
1 -51 -8 -54 -7 -41 9 19 22 6 33 -16 14 -26 -23 -73 -45 -113 -53 -29 -6 -33
-5 -22 6 6 7 12 28 12 47 0 28 3 33 16 28 9 -4 27 1 40 9 79 52 -54 73 -214
35 -103 -25 -155 -25 -208 -1 -30 14 -46 16 -59 9z m145 -261 c0 -7 -97 -66
-124 -77 -41 -15 -56 -12 -56 10 0 17 -4 19 -17 11 -10 -5 -52 -14 -92 -20
-75 -12 -153 -40 -165 -59 -4 -7 -15 -7 -35 1 -23 8 -42 7 -89 -7 -33 -10 -66
-16 -73 -13 -23 8 50 33 151 52 93 17 155 40 178 68 10 11 21 12 55 4 34 -7
58 -5 117 11 66 18 150 28 150 19z"/>
</g>
</svg>
