<svg width="1000" height="500" viewBox="0 0 1000 500" fill="none" xmlns="http://www.w3.org/2000/svg">
<path d="M182 89.2C172.8 91.9 166.2 92.9 164.2 91.6C163.7 91.3 155.6 106.9 146.1 126.3C136.6 145.7 125.4 167.8 121.1 175.5C116.8 183.2 108.2 198.9 102 210.5C89.2 234.2 77.6 254.8 68.5 269.5C60.6 282.3 49.4 302.3 44.3 312.5C36.6 327.7 31.9 345.7 31.7 359.6C31.6 366.5 32 368.5 34.4 373.3C38.8 382.4 45 386.4 64.5 392.5C71.1 394.5 83.5 399.5 92 403.5C113.6 413.7 120.2 415.5 136.5 415.5C162.6 415.5 182.6 408.7 226.5 385C240.7 377.3 250.8 372.6 255 371.5C268.8 368 281.4 359.8 285.6 351.8C287.3 348.6 286.7 347 284 347C283 347 281.4 346.7 280.5 346.4C279.2 345.9 279.6 345.3 282.4 343.3C288.5 339.3 288.4 333.4 282.4 330.5C277.3 328.1 268.9 327.5 260.8 329C253.2 330.5 253 330.4 249.5 324.6C249 323.6 246.7 322.5 244.5 322C241.2 321.3 239.6 321.5 235 323.5C231.2 325.1 226.6 326 220.5 326.5C207.7 327.4 198 329.9 178 337.5C150.9 347.9 137.9 351.9 129.5 352.7C125.4 353 122 353 122 352.5C122 350.9 142.8 314.8 167.5 273.5C211.1 200.6 233.4 158.4 244 128.8L245.3 125.1L239.6 118.2C229.6 105.9 218.5 97.3 204.7 91C193.7 86 192.6 85.9 182 89.2Z" fill="white"/>
<path d="M447.4 87C445.7 87.4 443.9 87.9 443.4 88.3C440.4 90.1 426.7 92.8 424.6 92C422.3 91.2 421.7 92.4 405.1 126.3C395.6 145.7 384.4 167.8 380.1 175.5C375.8 183.2 367.2 198.9 361 210.5C348.5 233.8 337.6 252.9 327.2 270.1C310.4 297.8 300.6 316.4 296.7 328.2C290.8 345.9 289 363.6 292.4 371.4C296.8 381.7 302.9 385.9 322.5 392.1C329.7 394.4 342.5 399.5 351 403.5C372.4 413.7 379.1 415.5 395.5 415.5C421.7 415.5 442.6 408.4 486.5 384.6C500 377.2 509.8 372.5 513.9 371.5C527.6 368 540.5 359.7 544.6 351.8C546.4 348.3 545.7 347 542.1 347C537.9 347 537.7 345.9 541.5 343.3C545.2 340.8 546.9 336.7 545.3 334.1C542.1 329 531.3 326.9 519.8 329C512.2 330.5 512 330.4 508.5 324.6C508 323.6 505.7 322.5 503.5 322C500.2 321.3 498.6 321.5 494 323.5C490.2 325.1 485.6 326 479.5 326.5C466.7 327.4 457 329.9 437 337.5C409.9 347.9 396.9 351.9 388.5 352.7C384.4 353 381 353 381 352.6C381 351 398.3 320.9 421.8 281.5C462.5 213.4 478.1 185.3 490.6 158C497.8 142.2 504 127.2 504 125.5C504 123.3 489.2 107.3 482.5 102.2C475.2 96.8 460.1 88.8 454 87.2C452.1 86.8 449.1 86.7 447.4 87Z" fill="white"/>
<path d="M894.5 87.1999C893.5 87.7999 887.3 88.8999 880.6 89.5999C866.2 91.1999 862.9 92.0999 858.4 95.4999C855.1 97.9999 855 97.9999 855 96.0999C855 93.4999 855.2 93.4999 845.6 96.4999C841 97.9999 827.7 100.5 813.1 102.5C775.9 107.8 763.7 110.5 753 116C749.6 117.7 747.1 118.3 742.8 118.1C739.6 118 732 118.9 726 120.1C715.7 122.1 714.7 122.2 711.2 120.7C709.2 119.8 705 118.9 701.8 118.7L696.2 118.4L693.9 123.2C692.6 125.9 691.3 128.3 691 128.5C690.7 128.7 680.3 131.2 668 134C637.7 140.9 523.9 169.7 519 171.6C511.7 174.5 510.2 180.5 514.4 188.9C516.1 192.2 517.9 194.1 520.1 195C524.7 197 534.5 204.4 543 212.5C547.1 216.4 552.3 220.8 554.5 222.3L558.6 225L571 223.5C583.7 221.9 598.4 219 616.2 214.4C627.1 211.7 649.4 207 651.6 207C652.6 207 652.3 208.6 650.4 212.7C624.3 269.8 603 327.7 594.6 364C590.2 383.2 590 381.2 597.5 386.6C614.3 398.5 631.8 405.6 638.2 402.9C640.8 401.8 646 396.4 646 394.7C646 393.2 652.2 381 653 381C653.4 381 653.6 382 653.3 383.1C652.9 384.7 653.1 385.1 654.1 384.8C654.9 384.5 658.1 378.5 661.4 371.4C664.6 364.3 676.9 338.7 688.7 314.5C718.5 253.6 740.5 207.9 747.6 192.3L753.5 179.2L759.8 177.6C763.2 176.8 771.6 173.7 778.3 170.9C797.3 162.9 803.7 160.9 812.8 160.3C819 159.9 821.4 159.3 822.3 158C823 157.1 825.7 155.3 828.5 154.1C833.2 152 833.6 152 836.5 153.6C839.1 155 841.1 155.1 847.3 154.5C852.9 154 855 153.4 855 152.4C855 150 862.2 146.2 866.2 146.5C869 146.8 870.4 146.3 872 144.5C874.3 142 879.3 140.7 890.5 139.5C899 138.6 904.2 137.1 906.6 134.9C908.6 133 908.7 133.1 912.5 135C917 137.3 918.1 137.4 924.8 135.9C934.8 133.8 935.6 129.6 925.8 130.7C920.5 131.3 920.3 131.1 922.6 127.5C924.1 125.2 924.6 125.1 929.9 125.6C933 126 936.5 126.9 937.7 127.6C940.8 129.5 941 129.4 941 126C941 122.2 942.3 122.2 945.2 126C947.9 129.7 951.3 129.7 951.5 126.2C951.7 123.6 953.5 122 956.2 122C957.1 122 958.5 121.7 959.4 121.4C962.9 120.1 960.6 119.2 952.3 118.8C943.1 118.3 937 116.2 937 113.5C937 111.6 936.9 111.6 942.4 114C945.9 115.6 947.4 115.8 949 115C951.4 113.7 951.3 113.9 949.7 110.7C948.7 108.8 948 108.4 946.9 109.1C945.1 110.2 936.9 110.2 935.2 109.1C934.2 108.5 935.6 107.4 939.9 105.1C946.7 101.6 949 101.3 952.4 103.5C954.6 105 955 104.9 958.6 102.5C960.7 101.1 963.4 99.6999 964.7 99.3999C966 98.9999 966.9 98.2999 966.7 97.5999C966.3 96.3999 963.3 96.3999 955 97.4999C949.9 98.2999 949.6 98.1999 950.9 96.5999C952.8 94.3999 951.5 93.2999 949.3 95.1999C946.7 97.4999 942 99.6999 938 100.5C935.1 101.1 934.7 101 935.8 99.8999C936.4 99.1999 937 97.0999 937 95.1999C937 92.3999 937.3 91.8999 938.6 92.3999C939.5 92.7999 941.3 92.2999 942.6 91.4999C950.5 86.2999 937.2 84.1999 921.2 87.9999C910.9 90.4999 905.7 90.4999 900.4 88.0999C897.4 86.6999 895.8 86.4999 894.5 87.1999ZM909 113.3C909 114 899.3 119.9 896.6 121C892.5 122.5 891 122.2 891 120C891 118.3 890.6 118.1 889.3 118.9C888.3 119.4 884.1 120.3 880.1 120.9C872.6 122.1 864.8 124.9 863.6 126.8C863.2 127.5 862.1 127.5 860.1 126.7C857.8 125.9 855.9 126 851.2 127.4C847.9 128.4 844.6 129 843.9 128.7C841.6 127.9 848.9 125.4 859 123.5C868.3 121.8 874.5 119.5 876.8 116.7C877.8 115.6 878.9 115.5 882.3 116.3C885.7 117 888.1 116.8 894 115.2C900.6 113.4 909 112.4 909 113.3Z" fill="white"/>
</svg>
