<svg width="50" height="50" viewBox="0 0 50 50" fill="none" xmlns="http://www.w3.org/2000/svg">
<g clip-path="url(#clip0_86_605)">
<path d="M25.2432 49.4981C38.9117 49.4981 49.9923 38.4176 49.9923 24.7491C49.9923 11.0805 38.9117 0 25.2432 0C11.5747 0 0.494141 11.0805 0.494141 24.7491C0.494141 38.4176 11.5747 49.4981 25.2432 49.4981Z" fill="url(#paint0_linear_86_605)"/>
<path d="M37.2892 14.2402L32.8711 36.524C32.8711 36.524 32.2523 38.0709 30.5508 37.3265L20.3515 29.5054L16.6391 27.7169L10.3939 25.619C10.3939 25.619 9.43678 25.2806 9.34011 24.5362C9.24343 23.7918 10.4229 23.3954 10.4229 23.3954L35.2493 13.6602C35.2493 13.6505 37.2892 12.7514 37.2892 14.2402Z" fill="white"/>
<path d="M19.5588 36.2728C19.5588 36.2728 19.2591 36.2438 18.8917 35.0741C18.5243 33.9043 16.6392 27.717 16.6392 27.717L31.6336 18.1944C31.6336 18.1944 32.5037 17.6724 32.465 18.1944C32.465 18.1944 32.6197 18.2911 32.1557 18.7165C31.6916 19.1515 20.3805 29.3218 20.3805 29.3218" fill="#D2E4F0"/>
<path d="M24.2571 32.5021L20.2258 36.1855C20.2258 36.1855 19.9067 36.4272 19.5684 36.2725L20.3418 29.4375" fill="#B5CFE4"/>
</g>
<defs>
<linearGradient id="paint0_linear_86_605" x1="25.2432" y1="0" x2="25.2432" y2="49.3176" gradientUnits="userSpaceOnUse">
<stop stop-color="#41BCE7"/>
<stop offset="1" stop-color="#22A6DC"/>
</linearGradient>
<clipPath id="clip0_86_605">
<rect width="49.4981" height="49.4981" fill="white" transform="translate(0.494141)"/>
</clipPath>
</defs>
</svg>
