<svg width="114" height="114" viewBox="0 0 114 114" fill="none" xmlns="http://www.w3.org/2000/svg">
<path d="M13.8047 57L15.1406 31.1719L63.2344 89.5078H44.0859L13.8047 57Z" fill="#F73434"/>
<path d="M98.8594 29.3906L69.0234 67.2422H89.0625L98.8594 57.8906V29.3906Z" fill="#F73434"/>
<path d="M17.0002 26.2343C16.0419 25.0729 14.4637 24.6418 13.0459 25.1477C11.6316 25.6536 10.6875 26.9967 10.6875 28.5V57C10.6875 57.8728 11.0081 58.7136 11.5853 59.3691L40.0852 91.4316C40.7621 92.1904 41.7311 92.625 42.75 92.625H64.125C65.5037 92.625 66.7577 91.8306 67.3455 90.5837C67.9333 89.3368 67.7516 87.862 66.8752 86.7968L17.0002 26.2343ZM44.3496 85.5L17.8125 55.6463V38.4287L56.5761 85.5H44.3496ZM100.947 25.1442C99.5256 24.6418 97.9474 25.0729 96.9926 26.245L64.9301 65.4325C64.0573 66.4977 63.8792 67.969 64.467 69.2158C65.0548 70.4627 66.3124 71.25 67.6875 71.25H89.0625C90.0066 71.25 90.915 70.876 91.5812 70.2062L102.269 59.5187C102.938 58.8525 103.312 57.9441 103.312 57V28.5C103.312 26.9931 102.365 25.65 100.947 25.1442ZM96.1875 55.5252L87.5876 64.125H75.2044L96.1875 38.4786V55.5252Z" fill="black"/>
<path d="M17.0002 26.2343C16.0419 25.0729 14.4637 24.6418 13.0459 25.1477C11.6316 25.6536 10.6875 26.9967 10.6875 28.5V57C10.6875 57.8728 11.0081 58.7136 11.5853 59.3691L40.0852 91.4316C40.7621 92.1904 41.7311 92.625 42.75 92.625H64.125C65.5037 92.625 66.7577 91.8306 67.3455 90.5837C67.9333 89.3368 67.7516 87.862 66.8752 86.7968L17.0002 26.2343ZM44.3496 85.5L17.8125 55.6463V38.4287L56.5761 85.5H44.3496ZM100.947 25.1442C99.5256 24.6418 97.9474 25.0729 96.9926 26.245L64.9301 65.4325C64.0573 66.4977 63.8792 67.969 64.467 69.2158C65.0548 70.4627 66.3124 71.25 67.6875 71.25H89.0625C90.0066 71.25 90.915 70.876 91.5812 70.2062L102.269 59.5187C102.938 58.8525 103.312 57.9441 103.312 57V28.5C103.312 26.9931 102.365 25.65 100.947 25.1442ZM96.1875 55.5252L87.5876 64.125H75.2044L96.1875 38.4786V55.5252Z" fill="black"/>
</svg>
