<svg width="299" height="198" viewBox="0 0 299 198" fill="none" xmlns="http://www.w3.org/2000/svg">
<path d="M70.9226 0.204203C71.816 -0.34559 72.4345 0.753998 72.9156 1.37252C104.666 41.1638 136.485 80.8864 168.305 120.609C168.923 121.159 168.442 122.396 167.549 122.258C152.361 122.258 137.104 122.258 121.916 122.258C120.679 122.258 119.511 121.64 118.755 120.746C102.948 101.023 87.2102 81.2988 71.4036 61.5749C70.7164 60.7502 70.3728 59.7194 70.4415 58.6885C70.4415 39.6519 70.4415 20.5466 70.4415 1.50996C70.4415 1.0289 70.4415 0.410376 70.9226 0.204203Z" fill="#FF4655"/>
<path d="M217.925 0.0668152C218.544 -0.208082 219.3 0.410436 219.162 1.09768C219.162 20.1343 219.162 39.2396 219.162 58.2762C219.231 59.3758 218.956 60.4754 218.269 61.3001C213.458 67.2791 208.647 73.3268 203.837 79.3058C203.012 80.3367 201.706 80.8865 200.4 80.8865C185.281 80.8865 170.162 80.8865 155.042 80.8865C154.149 81.0239 153.668 79.7869 154.287 79.2371C175.247 52.9845 196.208 26.8005 217.169 0.547885C217.444 0.410437 217.65 0.204264 217.925 0.0668152Z" fill="#FF4655"/>
<path d="M113.395 155.04C118 154.353 122.81 155.177 126.865 157.377C130.851 159.507 134.081 162.943 136.006 166.998C138.136 171.465 138.617 176.688 137.449 181.43C136.28 186.103 133.531 190.295 129.752 193.182C123.292 198.267 113.739 199.023 106.523 195.037C102.331 192.838 98.9632 189.127 97.1076 184.866C94.7023 179.506 94.7023 173.114 97.0389 167.754C99.7879 161.088 106.179 156.071 113.395 155.04ZM114.564 162.256C109.959 162.943 105.904 166.242 104.117 170.503C102.262 174.764 102.606 179.918 105.08 183.835C107.141 187.134 110.578 189.54 114.426 190.158C118.343 190.845 122.536 189.608 125.491 186.997C128.858 184.11 130.714 179.506 130.37 175.039C130.095 171.053 128.034 167.273 124.872 164.868C121.986 162.668 118.137 161.637 114.564 162.256Z" fill="#FF4655"/>
<path d="M0 156.002C1.78683 155.521 3.64238 155.933 5.49794 155.796C6.11646 155.865 7.14732 155.521 7.49094 156.277C7.62839 157.239 7.55966 158.201 7.55966 159.163C7.55966 167.548 7.55966 176.001 7.55966 184.385C14.9132 175.176 22.2666 165.967 29.6889 156.758C30.1012 156.277 30.5823 155.865 31.2695 155.865C33.4 155.796 35.5304 155.865 37.5921 155.796C38.4168 155.796 39.2415 155.658 39.9288 156.208C37.4547 159.438 34.8432 162.6 32.3004 165.761C24.7407 175.245 17.1811 184.729 9.62139 194.144C9.0716 194.831 8.59053 195.587 7.90328 196.206C7.21604 196.755 6.32263 196.549 5.49794 196.618C3.64238 196.549 1.85555 196.687 0 196.481V156.002Z" fill="#FF4655"/>
<path d="M51.1995 157.445C51.9554 156.346 53.2612 155.727 54.5669 155.727C56.2163 155.727 57.8657 155.727 59.4464 155.727C59.9962 155.659 60.3398 156.277 60.2711 156.758C60.2711 169.678 60.2711 182.598 60.2711 195.519C60.3398 196 60.0649 196.618 59.4464 196.549C57.4534 196.549 55.3916 196.549 53.3986 196.549C52.6427 196.549 52.0929 196.068 51.6805 195.519C48.1756 191.12 44.6707 186.722 41.1657 182.324C37.5921 186.791 34.0871 191.189 30.5135 195.656C30.1011 196.137 29.5513 196.549 28.9328 196.549C26.5962 196.618 24.2596 196.549 21.9917 196.549C21.4419 196.481 20.6859 196.687 20.3423 196.068C30.5822 183.217 40.9595 170.366 51.1995 157.445ZM45.4266 176.207C47.832 179.231 50.1686 182.186 52.6427 185.21C52.6427 179.231 52.6427 173.252 52.6427 167.204C50.2373 170.228 47.832 173.183 45.4266 176.207Z" fill="#FF4655"/>
<path d="M69.4801 156.827C69.4114 156.346 69.6863 155.796 70.2361 155.796C72.2978 155.727 74.2908 155.796 76.3525 155.796C76.9023 155.727 77.3147 156.277 77.1772 156.827C77.1772 167.617 77.1772 178.475 77.1772 189.265C82.8126 189.265 88.5167 189.265 94.1521 189.265C94.6332 189.127 94.9081 189.746 94.5644 190.089C93.1212 192.014 91.5406 193.869 90.0974 195.725C89.6163 196.343 88.8603 196.618 88.1044 196.55C82.1254 196.55 76.1464 196.55 70.1673 196.55C69.6176 196.55 69.4114 196 69.4114 195.519C69.4801 182.667 69.4801 169.747 69.4801 156.827Z" fill="#FF4655"/>
<path d="M144.939 156.827C144.802 156.208 145.283 155.658 145.901 155.796C156.21 155.796 166.519 155.796 176.827 155.796C177.308 155.727 177.858 156.002 177.789 156.552C177.789 159.369 177.789 162.118 177.789 164.936C177.858 165.623 177.514 166.173 177.102 166.654C174.147 170.365 171.192 174.076 168.237 177.719C168.099 177.994 167.618 178.337 167.962 178.612C172.498 184.316 177.033 189.952 181.5 195.587C181.844 195.862 181.844 196.481 181.294 196.481C178.614 196.549 175.934 196.481 173.254 196.481C172.223 196.481 171.604 195.518 171.054 194.831C166.931 189.608 162.739 184.454 158.615 179.231C158.34 178.818 157.859 178.269 158.272 177.856C162.189 172.908 166.175 167.96 170.092 163.012C164.251 163.012 158.409 163.081 152.636 162.943C152.499 173.87 152.636 184.797 152.568 195.725C152.636 196.206 152.086 196.549 151.674 196.481C149.681 196.481 147.619 196.481 145.626 196.481C145.077 196.481 144.87 195.862 144.939 195.45C144.939 182.667 144.939 169.747 144.939 156.827Z" fill="#FF4655"/>
<path d="M188.099 156.827C188.03 156.277 188.374 155.727 188.924 155.796C190.848 155.727 192.772 155.796 194.697 155.796C195.453 155.727 196.14 156.071 196.552 156.689C206.174 168.716 215.795 180.812 225.416 192.838C226.241 193.938 227.272 194.969 227.959 196.137C227.89 196.275 227.753 196.481 227.684 196.618C225.348 196.756 223.011 196.618 220.674 196.687C219.781 196.687 218.613 196.756 218.063 195.931C214.42 191.464 210.847 186.928 207.273 182.461C203.699 186.928 200.195 191.326 196.621 195.794C196.208 196.275 195.659 196.687 195.04 196.687C193.047 196.687 190.985 196.687 188.992 196.687C188.374 196.756 188.03 196.137 188.168 195.656C188.099 182.667 188.099 169.747 188.099 156.827ZM195.796 167.204C195.796 173.183 195.796 179.162 195.796 185.141C198.201 182.117 200.607 179.162 203.012 176.138C200.607 173.183 198.201 170.228 195.796 167.204Z" fill="#FF4655"/>
<path d="M222.047 156.827C221.979 156.346 222.185 155.796 222.735 155.796C224.659 155.727 226.583 155.796 228.507 155.796C229.263 155.727 230.019 156.002 230.5 156.621C237.923 165.898 245.276 175.108 252.698 184.385C252.698 175.176 252.698 166.036 252.698 156.827C252.561 156.277 253.042 155.659 253.661 155.796C255.722 155.796 257.715 155.727 259.777 155.796C260.327 155.796 260.464 156.415 260.396 156.827C260.396 169.747 260.396 182.598 260.396 195.519C260.464 195.931 260.258 196.55 259.708 196.55C257.715 196.618 255.654 196.55 253.661 196.55C252.973 196.55 252.355 196.275 251.942 195.725C244.52 186.516 237.167 177.238 229.745 167.96C229.745 173.389 229.745 178.819 229.745 184.179C229.882 184.66 229.195 185.073 228.92 184.66C226.789 182.049 224.728 179.437 222.666 176.826C222.185 176.345 222.047 175.657 222.116 174.97C222.047 168.991 222.047 162.943 222.047 156.827Z" fill="#FF4655"/>
<path d="M265.618 156.552C265.55 156.002 266.099 155.727 266.581 155.796C275.034 155.796 283.555 155.796 292.008 155.796C292.764 155.727 293.52 156.002 293.933 156.621C295.445 158.476 296.957 160.332 298.4 162.256C298.812 162.6 298.469 163.218 297.987 163.149C293.52 163.218 289.122 163.149 284.655 163.149C284.655 173.939 284.655 184.797 284.655 195.587C284.792 196.137 284.38 196.687 283.83 196.618C281.837 196.618 279.776 196.618 277.783 196.618C277.37 196.687 276.958 196.274 277.027 195.862C276.958 184.935 277.027 174.076 276.958 163.149C273.453 163.149 269.948 163.149 266.443 163.149C265.962 163.218 265.412 162.874 265.481 162.325C265.618 160.4 265.618 158.476 265.618 156.552Z" fill="#FF4655"/>
</svg>
